<?xml version="1.0" standalone="no"?>
<!DOCTYPE svg PUBLIC "-//W3C//DTD SVG 20010904//EN"
 "http://www.w3.org/TR/2001/REC-SVG-20010904/DTD/svg10.dtd">
<svg version="1.0" xmlns="http://www.w3.org/2000/svg"
 width="953.000000pt" height="953.000000pt" viewBox="0 0 953.000000 953.000000"
 preserveAspectRatio="xMidYMid meet">
<metadata>
Created by potrace 1.11, written by Peter Selinger 2001-2013
</metadata>
<g transform="translate(0.000000,953.000000) scale(0.100000,-0.100000)"
fill="#000000" stroke="none">
<path d="M4672 9508 c-22 -22 -13 -28 38 -28 28 0 50 4 50 8 0 16 -25 32 -50
32 -14 0 -31 -5 -38 -12z"/>
<path d="M4881 9500 l-23 -20 61 0 c61 0 71 6 49 28 -18 18 -60 14 -87 -8z"/>
<path d="M4439 9485 c-22 -22 -31 -25 -99 -23 -41 0 -63 3 -47 5 15 2 25 9 22
14 -9 14 -56 10 -85 -6 l-25 -14 25 -2 c14 -1 -4 -7 -40 -15 -83 -17 -101 -17
-97 -1 1 8 -13 13 -41 15 -37 3 -43 0 -51 -21 -7 -19 -19 -25 -52 -30 -23 -3
-53 -1 -66 4 -45 17 -81 11 -110 -20 -32 -34 -74 -41 -120 -22 -26 11 -36 10
-60 -1 -15 -7 -28 -19 -28 -27 0 -21 -82 -41 -141 -35 -48 6 -52 5 -75 -24
-16 -20 -42 -35 -78 -46 -62 -18 -72 -19 -51 -6 26 16 1 24 -39 12 -24 -8 -41
-20 -44 -32 -6 -23 3 -26 21 -8 8 8 12 9 12 1 0 -6 -17 -17 -37 -23 -21 -7
-47 -18 -58 -25 -25 -15 -107 -27 -99 -14 13 22 -25 6 -40 -16 -23 -35 -72
-58 -108 -51 -44 9 -72 -2 -92 -34 -20 -35 -129 -90 -172 -87 -23 2 -30 -2
-32 -21 -4 -29 -73 -65 -110 -58 -34 8 -89 -25 -94 -55 -4 -27 -113 -92 -141
-83 -22 7 -47 -12 -47 -37 0 -28 -67 -69 -101 -62 -21 4 -34 -1 -53 -20 -14
-15 -26 -35 -26 -46 0 -25 -65 -71 -100 -71 -36 0 -70 -27 -70 -55 0 -30 -71
-89 -98 -81 -26 9 -72 -29 -72 -59 0 -30 -71 -95 -98 -89 -21 6 -77 -50 -66
-67 3 -5 -10 -27 -28 -49 -23 -28 -41 -40 -60 -40 -31 0 -68 -41 -68 -74 0
-25 -58 -86 -81 -86 -29 0 -58 -31 -65 -68 -9 -50 -49 -102 -79 -102 -29 0
-65 -47 -65 -85 0 -34 -44 -91 -75 -99 -31 -8 -59 -49 -52 -76 7 -28 -32 -82
-75 -102 -45 -21 -51 -32 -50 -76 2 -47 -23 -91 -62 -107 -37 -16 -56 -50 -49
-87 6 -31 -31 -108 -52 -108 -33 0 -55 -38 -55 -94 0 -47 -4 -58 -31 -85 -17
-17 -34 -31 -39 -31 -14 0 -31 -56 -25 -82 8 -33 -18 -85 -49 -100 -20 -9 -25
-20 -31 -76 -8 -72 -31 -132 -52 -132 -12 0 -43 -56 -43 -78 0 -4 9 -18 20
-30 12 -12 16 -22 10 -22 -6 0 -19 -20 -30 -45 -11 -25 -26 -45 -33 -45 -22 0
-41 -54 -28 -78 6 -12 11 -32 11 -47 0 -31 -26 -85 -41 -85 -17 0 -38 -63 -28
-82 5 -9 9 -35 9 -58 0 -31 -6 -47 -25 -64 -37 -35 -49 -74 -30 -103 20 -30
11 -89 -20 -123 -30 -33 -37 -70 -19 -94 20 -28 18 -68 -8 -120 -20 -41 -20
-47 -6 -89 13 -40 13 -49 -4 -98 -14 -44 -17 -72 -12 -146 6 -84 5 -94 -15
-119 -24 -30 -27 -66 -8 -86 42 -41 44 -101 6 -139 -25 -25 -24 -48 6 -89 29
-39 34 -104 10 -117 -8 -5 -17 -22 -21 -39 -5 -25 -1 -37 20 -59 34 -37 39
-104 9 -133 -20 -20 -10 -71 19 -95 28 -23 42 -105 22 -128 -24 -27 -17 -75
16 -106 37 -35 50 -92 26 -116 -9 -8 -16 -21 -16 -27 0 -22 31 -70 45 -70 24
0 41 -75 26 -116 -14 -40 0 -94 25 -94 16 0 44 -61 44 -94 0 -12 -5 -27 -11
-33 -15 -15 6 -70 32 -84 34 -18 51 -66 44 -120 -7 -47 -5 -51 28 -82 49 -47
59 -70 51 -123 -6 -43 -5 -46 35 -83 48 -44 76 -102 59 -119 -16 -16 14 -78
41 -87 32 -10 64 -73 56 -112 -5 -27 -1 -37 20 -55 90 -79 97 -90 91 -129 -5
-33 -2 -41 25 -66 83 -75 99 -95 99 -125 0 -38 27 -85 54 -93 31 -8 70 -64 68
-95 -3 -35 33 -80 63 -80 15 0 26 -7 30 -20 3 -11 10 -20 14 -20 12 0 31 -48
26 -62 -6 -16 40 -68 60 -68 27 0 85 -60 85 -89 0 -30 46 -81 72 -81 27 0 89
-65 82 -84 -9 -23 43 -76 74 -76 28 0 97 -64 87 -81 -10 -15 44 -69 70 -69 28
0 95 -57 95 -80 0 -28 50 -70 75 -64 28 7 105 -53 105 -82 0 -27 40 -54 81
-54 34 0 99 -55 99 -84 0 -20 51 -46 77 -40 27 7 103 -42 103 -66 0 -24 42
-50 82 -50 37 0 108 -43 108 -65 0 -22 44 -46 81 -44 45 3 119 -35 119 -61 0
-26 50 -51 87 -44 37 7 103 -20 110 -44 7 -30 55 -52 95 -46 42 7 104 -19 113
-47 8 -23 61 -39 92 -28 25 9 113 -23 113 -40 0 -20 59 -42 94 -35 50 9 93 -4
128 -38 29 -28 33 -29 88 -23 62 7 114 -9 153 -48 12 -12 24 -16 35 -11 9 4
44 8 77 9 53 1 63 -2 87 -27 29 -32 42 -34 88 -15 24 11 42 11 76 4 24 -6 44
-14 44 -19 0 -21 52 -28 96 -13 63 21 100 19 118 -6 13 -19 20 -21 63 -14 78
12 139 7 175 -15 42 -25 53 -25 81 2 30 31 96 30 138 -1 33 -24 86 -22 96 5 7
20 109 19 129 -1 23 -23 61 -18 86 10 17 20 31 25 66 25 25 0 50 -6 58 -15 23
-23 60 -18 91 11 24 22 34 25 78 21 27 -3 64 -8 82 -12 25 -6 36 -2 54 16 29
29 100 42 151 27 37 -11 40 -10 71 20 32 31 34 32 107 27 83 -5 110 0 110 20
0 21 85 45 136 38 39 -5 46 -3 71 23 16 16 45 38 66 48 27 14 40 28 44 49 4
18 9 25 15 19 6 -6 6 -17 -1 -30 -17 -32 -14 -40 19 -47 33 -7 80 15 80 38 0
6 20 22 45 34 37 18 50 20 70 11 33 -15 74 -2 87 28 16 35 83 66 125 58 37 -7
83 16 83 41 0 23 78 58 113 51 35 -7 87 20 87 45 0 26 65 62 100 56 35 -7 94
28 98 59 4 25 60 54 105 54 40 1 62 17 71 52 7 32 68 68 114 68 30 0 65 29 76
65 11 31 65 69 104 72 39 3 72 27 72 53 0 27 77 92 101 85 22 -7 79 43 79 70
0 27 52 75 81 75 28 0 70 38 74 67 5 36 18 63 30 63 7 0 15 6 18 14 3 7 20 16
38 20 41 8 69 33 69 60 0 32 57 96 85 96 13 0 33 10 45 22 21 23 23 29 21 63
-2 25 54 85 78 85 28 0 63 45 65 82 1 39 42 97 69 97 27 1 69 51 63 75 -7 25
39 106 60 106 30 0 64 47 64 89 0 43 34 95 71 106 26 8 48 54 42 86 -5 29 31
99 52 99 8 0 23 12 35 27 16 21 20 37 16 62 -6 41 10 76 58 118 32 27 36 37
36 78 0 52 16 89 55 125 34 31 45 60 33 83 -16 30 2 78 44 119 37 36 40 43 34
79 -10 64 3 119 31 130 30 11 45 49 33 88 -11 40 6 111 31 129 32 22 41 58 25
97 -17 40 -4 92 31 122 28 25 37 67 17 84 -21 17 -9 106 17 135 21 22 23 43
13 136 -5 53 -3 61 21 90 27 32 27 38 4 94 -11 28 -9 39 15 99 l27 67 -21 39
c-27 53 -26 98 5 139 31 42 31 51 0 88 -32 38 -34 100 -5 127 12 11 20 31 20
51 0 23 -6 38 -20 46 -24 16 -27 83 -5 112 22 30 18 76 -11 118 -22 31 -25 44
-20 75 10 60 6 126 -9 143 -18 20 -31 115 -16 124 21 13 12 65 -14 88 -14 12
-25 30 -25 40 0 11 -5 28 -10 39 -8 14 -7 26 4 47 18 35 10 77 -19 96 -27 18
-41 86 -24 117 16 31 3 82 -24 94 -32 15 -55 86 -38 118 18 33 3 78 -31 94
-14 7 -30 19 -37 26 -13 16 -16 70 -6 108 8 30 -18 79 -42 79 -21 0 -46 68
-39 108 6 40 -9 76 -41 97 -12 9 -23 25 -23 36 0 11 -5 30 -12 42 -7 12 -13
37 -13 55 -1 19 -12 44 -26 60 -31 34 -65 98 -74 139 -3 17 -17 42 -29 55 -35
35 -79 110 -82 138 -2 14 -12 32 -22 41 -11 8 -41 51 -67 95 -58 96 -73 114
-96 114 -24 0 -55 46 -62 94 -7 43 -31 76 -57 76 -25 0 -80 68 -80 98 -1 36
-18 57 -61 75 -40 16 -72 56 -83 102 -10 39 -34 65 -60 65 -28 0 -86 53 -86
79 0 30 -48 81 -77 81 -32 0 -83 51 -83 83 0 30 -27 55 -72 68 -19 5 -45 18
-58 29 -13 11 -27 20 -32 20 -4 0 -8 12 -8 28 0 15 -4 32 -8 39 -9 15 -56 33
-85 33 -29 1 -77 44 -77 69 0 30 -39 61 -77 61 -39 0 -103 45 -103 72 0 29
-40 58 -81 58 -41 0 -81 27 -102 68 -8 18 -20 27 -35 26 -12 0 -22 5 -22 13 0
8 -10 13 -27 11 -46 -3 -113 40 -113 72 0 22 -44 40 -92 38 -40 -1 -108 41
-108 68 0 18 -40 34 -83 34 -49 0 -117 30 -117 51 0 25 -30 39 -83 39 -60 0
-107 18 -117 45 -9 24 -44 35 -112 35 -46 0 -98 24 -98 45 0 8 -3 15 -7 16 -5
0 -17 3 -28 6 -11 3 -31 5 -45 4 -64 -2 -77 0 -102 10 -15 6 -30 20 -33 30 -4
10 -18 22 -33 25 -15 3 -32 7 -38 9 -7 2 -21 -3 -32 -11 -26 -18 -77 -2 -111
34 -16 18 -32 25 -55 24 -116 -7 -175 -3 -173 12 2 11 -42 36 -64 36 -9 0 -22
-7 -29 -15 -15 -18 -32 -19 -82 -4 -21 5 -38 16 -38 24 0 8 -17 16 -42 20 -33
6 -44 4 -54 -9 -17 -24 -110 -12 -125 15 -7 14 -21 19 -49 19 -21 0 -42 -4
-45 -10 -4 -6 5 -10 21 -10 15 0 25 -2 22 -5 -4 -5 -545 -6 -605 -2 -7 0 -10
4 -7 8 6 10 -29 29 -54 29 -11 0 -30 -11 -43 -25z m-392 -61 c-3 -3 -12 -4
-19 -1 -8 3 -5 6 6 6 11 1 17 -2 13 -5z m-20 -160 c-3 -3 -12 -4 -19 -1 -8 3
-5 6 6 6 11 1 17 -2 13 -5z m-50 -10 c-3 -3 -12 -4 -19 -1 -8 3 -5 6 6 6 11 1
17 -2 13 -5z m-40 -10 c-3 -3 -12 -4 -19 -1 -8 3 -5 6 6 6 11 1 17 -2 13 -5z
m240 -20 c-3 -3 -12 -4 -19 -1 -8 3 -5 6 6 6 11 1 17 -2 13 -5z m1763 -54 c-8
-5 -22 -9 -30 -9 -10 0 -8 3 5 9 27 12 43 12 25 0z m95 -10 c-3 -5 -16 -10
-28 -9 -20 1 -20 2 3 9 14 4 26 8 28 9 2 1 0 -3 -3 -9z m-175 -4 c0 -2 -7 -7
-16 -10 -8 -3 -12 -2 -9 4 6 10 25 14 25 6z m-1590 -10 c0 -2 -8 -10 -17 -17
-16 -13 -17 -12 -4 4 13 16 21 21 21 13z m1627 -2 c-3 -3 -12 -4 -19 -1 -8 3
-5 6 6 6 11 1 17 -2 13 -5z m-129 -62 c2 -7 -3 -12 -10 -12 -8 0 -15 7 -15 15
0 18 19 15 25 -3z m-1663 -12 c-3 -5 -11 -10 -16 -10 -6 0 -7 5 -4 10 3 6 11
10 16 10 6 0 7 -4 4 -10z m40 -10 c3 -5 1 -10 -4 -10 -6 0 -11 5 -11 10 0 6 2
10 4 10 3 0 8 -4 11 -10z m1565 0 c0 -5 -2 -10 -4 -10 -3 0 -8 5 -11 10 -3 6
-1 10 4 10 6 0 11 -4 11 -10z m17 -26 c-3 -3 -12 -4 -19 -1 -8 3 -5 6 6 6 11
1 17 -2 13 -5z m-1310 -30 c-3 -3 -12 -4 -19 -1 -8 3 -5 6 6 6 11 1 17 -2 13
-5z m-610 -10 c-3 -3 -12 -4 -19 -1 -8 3 -5 6 6 6 11 1 17 -2 13 -5z m696 -11
c-7 -2 -21 -2 -30 0 -10 3 -4 5 12 5 17 0 24 -2 18 -5z m-679 -18 c11 -8 15
-15 9 -15 -7 0 -15 5 -19 11 -4 6 -19 9 -38 5 -22 -4 -27 -3 -16 4 21 14 42
12 64 -5z m426 1 c0 -3 -4 -8 -10 -11 -5 -3 -10 -1 -10 4 0 6 5 11 10 11 6 0
10 -2 10 -4z m1495 -41 c-16 -8 -37 -14 -45 -14 -8 0 1 7 20 14 46 18 64 17
25 0z m99 0 c3 -8 1 -15 -4 -15 -6 0 -10 7 -10 15 0 8 2 15 4 15 2 0 6 -7 10
-15z m-1727 -1 c-3 -3 -12 -4 -19 -1 -8 3 -5 6 6 6 11 1 17 -2 13 -5z m-40
-10 c-3 -3 -12 -4 -19 -1 -8 3 -5 6 6 6 11 1 17 -2 13 -5z m-224 -31 c-7 -2
-21 -2 -30 0 -10 3 -4 5 12 5 17 0 24 -2 18 -5z m1897 -12 c0 -5 -7 -12 -16
-15 -14 -5 -15 -4 -4 9 14 17 20 19 20 6z m-30 -41 c-8 -5 -28 -9 -45 -9 -30
2 -30 2 5 9 51 11 57 11 40 0z m-10 -30 c0 -5 -5 -10 -11 -10 -5 0 -7 5 -4 10
3 6 8 10 11 10 2 0 4 -4 4 -10z m-1137 -7 c-7 -2 -19 -2 -25 0 -7 3 -2 5 12 5
14 0 19 -2 13 -5z m-85 -10 c-16 -2 -40 -2 -55 0 -16 2 -3 4 27 4 30 0 43 -2
28 -4z m595 0 c-7 -2 -19 -2 -25 0 -7 3 -2 5 12 5 14 0 19 -2 13 -5z m-714 -7
c-2 -2 -38 -6 -79 -9 -46 -3 -62 -2 -40 3 36 8 126 13 119 6z m928 -12 c-3 -3
-12 -4 -19 -1 -8 3 -5 6 6 6 11 1 17 -2 13 -5z m463 -1 c-8 -3 -22 -11 -30
-17 -13 -10 -13 -9 -1 7 7 9 21 17 30 16 13 0 14 -1 1 -6z m-1745 -13 c13 -6
15 -9 5 -9 -8 0 -22 4 -30 9 -18 12 -2 12 25 0z m192 4 c-3 -3 -12 -4 -19 -1
-8 3 -5 6 6 6 11 1 17 -2 13 -5z m1166 -1 c-7 -2 -19 -2 -25 0 -7 3 -2 5 12 5
14 0 19 -2 13 -5z m-1236 -9 c-3 -3 -12 -4 -19 -1 -8 3 -5 6 6 6 11 1 17 -2
13 -5z m1653 -68 c0 -3 -4 -8 -10 -11 -5 -3 -10 -1 -10 4 0 6 5 11 10 11 6 0
10 -2 10 -4z m-645 -57 c107 -10 307 -42 390 -60 187 -43 361 -91 411 -114 32
-15 81 -31 109 -35 59 -10 85 -19 105 -36 8 -7 40 -22 70 -34 30 -12 69 -28
85 -35 17 -7 43 -16 59 -20 17 -3 42 -15 57 -26 15 -10 32 -19 39 -19 37 0
386 -207 580 -343 214 -150 521 -430 689 -627 39 -47 78 -92 85 -100 28 -32
173 -227 191 -257 131 -214 169 -279 237 -409 43 -83 78 -157 78 -165 0 -8 5
-20 11 -26 7 -7 19 -33 29 -60 9 -26 42 -118 73 -203 90 -245 167 -565 203
-840 24 -190 29 -590 10 -785 -33 -335 -47 -416 -121 -687 -20 -73 -43 -157
-51 -186 -17 -63 -127 -348 -158 -410 -12 -24 -27 -42 -32 -40 -5 1 -20 -19
-32 -47 -13 -27 -50 -93 -81 -145 -87 -143 -121 -216 -107 -230 8 -8 7 -10 -6
-5 -11 5 -20 -1 -29 -17 -6 -13 -15 -25 -19 -28 -4 -3 -24 -32 -45 -65 -20
-33 -56 -82 -80 -110 -23 -27 -64 -77 -90 -110 -287 -354 -628 -654 -1006
-885 -74 -45 -135 -86 -137 -91 -2 -5 -10 -9 -18 -9 -8 0 -76 -31 -152 -69
-176 -89 -339 -157 -528 -220 -141 -47 -357 -108 -414 -116 -14 -2 -81 -15
-150 -29 -69 -13 -163 -29 -210 -35 -153 -20 -477 -30 -635 -21 -132 8 -178
13 -260 26 -11 2 -50 6 -87 8 -37 3 -75 9 -85 14 -10 5 -36 12 -58 16 -93 15
-201 42 -380 94 -342 98 -705 270 -1096 517 -30 19 -113 81 -248 185 -143 109
-469 426 -590 573 -35 42 -66 77 -69 77 -2 0 2 -8 9 -17 23 -29 144 -174 191
-228 24 -27 34 -43 22 -35 -51 37 -289 330 -289 358 -1 9 -6 16 -13 15 -6 -2
-19 11 -28 29 -9 17 -38 61 -64 97 -54 75 -133 207 -178 296 -16 33 -50 102
-76 153 -25 51 -46 99 -46 106 0 8 -6 19 -14 25 -22 19 -68 122 -71 161 -1 19
-24 94 -50 165 -25 72 -57 168 -71 215 -13 47 -28 94 -33 105 -19 39 -42 151
-51 240 -5 50 -16 133 -24 185 -65 410 -42 863 67 1355 96 430 264 819 561
1299 11 17 47 67 80 111 256 342 501 593 784 804 59 44 121 91 137 104 71 58
385 246 540 324 117 59 405 174 514 205 306 88 489 128 697 153 284 34 611 40
869 14z m2535 -284 c13 -14 21 -25 18 -25 -2 0 -15 11 -28 25 -13 14 -21 25
-18 25 2 0 15 -11 28 -25z m-5910 -46 c-14 -11 -53 -48 -87 -81 -35 -34 -63
-56 -63 -51 0 15 147 153 163 153 6 -1 1 -10 -13 -21z m6026 -56 c15 -20 23
-33 16 -29 -13 8 -56 66 -49 66 3 0 17 -17 33 -37z m80 -55 l19 -23 -25 20
c-14 11 -27 21 -29 22 -2 2 0 3 6 3 5 0 18 -10 29 -22z m83 -81 c-2 -2 -17 12
-33 32 l-30 36 34 -32 c19 -18 32 -34 29 -36z m-6420 -21 c-35 -35 -67 -62
-71 -60 -8 5 112 124 126 124 4 0 -20 -29 -55 -64z m106 55 c3 -5 1 -12 -5
-16 -5 -3 -10 1 -10 9 0 18 6 21 15 7z m6352 -117 c-7 -7 -37 7 -37 17 0 6 9
5 21 -1 11 -7 19 -14 16 -16z m111 -56 c12 -15 42 -98 35 -98 -2 0 -12 19 -22
43 -10 23 -34 56 -53 73 -50 44 -59 64 -12 27 23 -18 46 -38 52 -45z m-6571
37 c-4 -8 -13 -15 -22 -15 -13 0 -12 3 3 18 19 21 27 20 19 -3z m-77 -25 c-11
-11 -20 -25 -20 -31 0 -16 -73 -99 -87 -99 -11 0 0 15 58 75 10 12 19 28 19
36 0 18 19 39 37 39 8 0 6 -7 -7 -20z m6730 -110 c0 -5 -2 -10 -4 -10 -3 0 -8
5 -11 10 -3 6 -1 10 4 10 6 0 11 -4 11 -10z m-6887 -41 c-10 -18 -26 -34 -35
-37 -10 -2 -18 -10 -18 -18 0 -7 -4 -16 -10 -19 -5 -3 -10 3 -10 15 0 12 9 24
23 29 12 5 29 21 36 35 8 14 18 26 23 26 5 0 1 -14 -9 -31z m6892 -27 c-6 -7
-35 18 -35 31 0 5 9 2 20 -8 11 -10 18 -20 15 -23z m88 -31 c9 -8 17 -22 17
-30 0 -16 -31 21 -49 59 -10 21 -9 22 1 6 7 -10 21 -26 31 -35z m-6983 -52
c-18 -43 -23 -29 -8 20 7 23 15 35 16 26 2 -9 -2 -30 -8 -46z m7010 -73 c0 -5
-7 -3 -15 4 -8 7 -15 20 -15 28 0 13 3 12 15 -4 8 -10 15 -23 15 -28z m-6896
-32 c3 -8 2 -12 -4 -9 -6 3 -10 10 -10 16 0 14 7 11 14 -7z m7 -68 c-6 -7 -15
-30 -20 -52 -9 -39 -9 -39 -10 -7 -1 37 32 116 37 89 2 -9 -1 -23 -7 -30z
m-357 -84 c-6 -4 -22 -23 -35 -43 -115 -171 -169 -257 -201 -315 -21 -38 -59
-107 -86 -154 -26 -47 -54 -101 -61 -120 -8 -19 -20 -42 -26 -50 -7 -8 -38
-73 -69 -145 -32 -71 -65 -146 -74 -165 -9 -19 -17 -42 -18 -50 -6 -33 -79
-255 -86 -261 -10 -7 -47 -146 -59 -219 -4 -30 -11 -66 -14 -80 -3 -14 -3 -19
1 -12 3 6 10 12 15 12 16 0 10 -25 -11 -43 -14 -12 -20 -29 -20 -58 0 -34 3
-39 13 -30 8 6 17 8 20 4 4 -3 7 -1 7 6 0 7 4 10 9 7 18 -11 41 7 49 38 7 27
12 31 38 28 16 -2 40 -10 53 -19 18 -12 22 -21 18 -46 -2 -18 2 -45 10 -61 9
-17 13 -42 10 -62 -3 -19 -2 -36 3 -39 9 -6 20 18 20 43 0 26 54 132 65 128 6
-1 10 -19 10 -39 0 -21 2 -37 5 -37 3 0 14 14 25 30 23 34 28 36 44 16 7 -9 8
-27 3 -52 -6 -29 -4 -43 7 -56 19 -23 36 -4 46 50 7 43 19 60 30 42 16 -26 22
-13 52 109 3 14 0 27 -8 33 -11 8 -10 9 4 4 9 -3 17 0 17 6 0 6 3 9 6 5 7 -6
-21 -144 -36 -183 -18 -46 -59 -276 -77 -429 -19 -171 -26 -713 -10 -865 l7
-75 -20 30 c-15 23 -20 26 -20 12 0 -11 -5 -17 -12 -14 -8 2 -12 17 -10 35 2
16 -2 33 -7 37 -6 3 -11 21 -12 38 -1 32 -1 31 -11 -8 -6 -22 -14 -42 -18 -45
-4 -3 -7 -16 -6 -30 1 -16 -5 -25 -14 -26 -30 -2 -48 -15 -43 -33 3 -11 -4
-21 -21 -29 -14 -6 -26 -20 -27 -29 -2 -42 -21 49 -27 131 -4 57 -11 91 -19
94 -8 2 -13 -5 -13 -18 0 -13 -4 -19 -11 -14 -8 5 -10 -12 -7 -60 4 -68 0 -77
-22 -51 -22 26 -34 2 -20 -39 13 -41 6 -81 -10 -56 -6 8 -10 27 -10 42 0 15
-5 30 -10 33 -6 3 -10 1 -10 -5 0 -26 -53 54 -54 81 -1 16 -6 29 -12 29 -27 0
-37 34 -41 142 -3 72 -9 115 -16 120 -9 5 -13 -20 -17 -95 -3 -56 -9 -109 -13
-118 -5 -10 -2 -21 7 -29 19 -15 12 -32 -9 -23 -11 4 -13 1 -9 -11 3 -9 2 -16
-3 -16 -11 0 -23 222 -23 420 1 123 12 324 24 425 3 22 8 81 11 130 6 98 27
242 50 345 61 271 110 456 126 476 4 5 24 64 44 130 20 65 44 137 55 159 10
22 30 69 45 105 91 220 254 522 394 728 42 62 83 124 91 138 8 13 22 24 30 24
10 0 11 -3 4 -8z m101 -78 c19 -15 19 -15 -8 -9 -18 5 -35 2 -52 -9 -13 -9
-34 -16 -46 -16 -17 0 -11 6 22 24 53 29 58 30 84 10z m7409 -56 c24 -42 18
-36 -29 27 -22 29 -28 41 -14 28 13 -12 33 -37 43 -55z m-6951 -15 c-17 -38
-134 -185 -141 -178 -2 2 24 38 57 81 34 42 61 81 61 86 0 12 32 60 37 55 2
-2 -5 -22 -14 -44z m6294 -15 c-3 -8 -6 -5 -6 6 -1 11 2 17 5 13 3 -3 4 -12 1
-19z m704 -40 c17 -24 18 -29 6 -19 -18 14 -42 51 -33 51 3 0 15 -15 27 -32z
m-7333 -45 c-10 -2 -26 -2 -35 0 -10 3 -2 5 17 5 19 0 27 -2 18 -5z m6707 -13
c10 -11 16 -20 13 -20 -3 0 -13 9 -23 20 -10 11 -16 20 -13 20 3 0 13 -9 23
-20z m-6628 -33 c4 -7 0 -8 -11 -4 -10 4 -22 7 -27 7 -5 0 -9 4 -9 9 0 12 38
2 47 -12z m6742 -51 c-2 -2 -13 8 -23 22 l-19 27 24 -22 c12 -12 21 -24 18
-27z m-6664 14 c3 -5 0 -10 -7 -10 -7 0 -24 -3 -38 -6 -24 -6 -25 -6 -5 9 23
19 41 21 50 7z m-535 -67 c8 -10 5 -12 -12 -10 -17 3 -24 11 -26 33 -2 28 -2
28 12 9 9 -11 20 -26 26 -32z m7851 -40 c13 -16 12 -17 -3 -4 -10 7 -18 15
-18 17 0 8 8 3 21 -13z m77 -148 c-3 -3 -9 2 -12 12 -6 14 -5 15 5 6 7 -7 10
-15 7 -18z m-8363 -223 c-6 -4 -16 -18 -23 -32 -31 -62 -62 -113 -56 -90 11
40 65 130 77 130 8 0 8 -3 2 -8z m-88 -174 c-3 -8 -6 -5 -6 6 -1 11 2 17 5 13
3 -3 4 -12 1 -19z m8646 -28 c3 -11 1 -18 -4 -14 -5 3 -9 12 -9 20 0 20 7 17
13 -6z m-10 -40 c3 -11 1 -18 -4 -14 -5 3 -9 12 -9 20 0 20 7 17 13 -6z
m-8668 -29 c-3 -6 -11 -11 -16 -11 -5 0 -4 6 3 14 14 16 24 13 13 -3z m-15
-41 c0 -5 -5 -10 -11 -10 -5 0 -7 5 -4 10 3 6 8 10 11 10 2 0 4 -4 4 -10z
m8770 -115 c0 -12 4 -25 9 -30 5 -6 12 -21 15 -35 l7 -25 -16 25 c-13 21 -15
22 -10 4 3 -12 1 -32 -5 -45 -10 -22 -10 -22 -7 9 3 24 0 32 -12 32 -13 1 -13
2 2 11 17 10 17 14 0 84 -3 16 -2 17 6 5 6 -8 11 -24 11 -35z m-543 -55 c6 0
9 -9 6 -20 -5 -20 -6 -20 -18 -3 -11 17 -24 50 -39 98 -3 11 4 -1 16 -27 13
-26 28 -48 35 -48z m424 58 c6 -13 23 -33 38 -45 l26 -22 -27 12 c-15 6 -33
24 -39 39 -6 15 -18 29 -27 31 -15 4 -15 5 0 6 10 0 23 -9 29 -21z m-181 -51
c0 -5 -9 2 -21 17 -11 14 -25 23 -31 20 -7 -5 -8 -2 -3 5 5 9 13 7 31 -10 13
-12 24 -27 24 -32z m130 21 c0 -6 -7 -7 -16 -4 -9 3 -20 6 -25 6 -6 0 -8 4 -5
9 8 12 46 2 46 -11z m-207 -25 c-13 -2 -33 -2 -45 0 -13 2 -3 4 22 4 25 0 35
-2 23 -4z m334 -43 c16 -25 34 -102 22 -94 -5 3 -9 15 -9 27 0 12 -9 37 -20
55 -11 17 -16 32 -12 32 4 0 13 -9 19 -20z m-8600 -12 c-3 -8 -6 -5 -6 6 -1
11 2 17 5 13 3 -3 4 -12 1 -19z m8176 -30 c19 -20 21 -28 7 -28 -5 0 -19 19
-30 43 -11 23 -15 33 -8 23 7 -11 21 -28 31 -38z m536 -79 c22 -91 26 -118 11
-84 -8 19 -9 19 -9 -2 -1 -12 -6 -23 -13 -25 -9 -3 -8 -19 5 -63 9 -32 15 -61
12 -63 -10 -10 -26 12 -22 29 3 11 1 17 -4 13 -12 -7 -11 -101 1 -109 6 -3 10
-15 10 -25 0 -24 15 -33 41 -25 16 5 19 12 15 28 -20 66 -35 160 -29 170 4 7
6 21 4 32 -2 11 0 17 3 14 3 -3 13 -45 21 -94 9 -49 20 -94 24 -99 5 -6 14
-42 20 -81 19 -121 22 -139 31 -190 18 -104 44 -497 44 -665 0 -217 -2 -268
-19 -400 -8 -58 -19 -154 -25 -215 -7 -60 -21 -164 -33 -230 l-22 -120 -6 55
c-8 61 -2 120 12 120 5 0 9 9 9 21 0 15 -5 19 -15 15 -13 -5 -15 1 -11 32 4
32 3 30 -7 -9 -7 -25 -18 -54 -26 -63 -9 -11 -11 -20 -5 -24 14 -11 11 -72 -4
-72 -7 0 -29 -12 -47 -26 -22 -17 -41 -23 -54 -19 -10 3 -22 1 -26 -5 -3 -5
-18 -10 -32 -10 -20 0 -24 3 -18 18 18 41 17 77 -4 96 -20 18 -22 18 -40 2
-10 -9 -26 -34 -36 -56 -22 -48 -40 -51 -50 -7 -8 30 -8 31 -13 7 -5 -29 -39
-80 -53 -80 -6 0 -7 5 -4 10 3 6 1 10 -5 10 -6 0 -9 4 -6 8 2 4 0 29 -5 54 -8
33 -7 53 1 68 17 31 4 37 -19 9 -13 -16 -16 -26 -8 -31 14 -8 -7 -35 -34 -43
-12 -4 -19 -16 -19 -31 0 -14 -6 -24 -14 -24 -12 0 -12 7 0 53 8 28 17 84 20
122 3 39 8 73 10 77 3 4 11 47 19 95 30 197 39 343 39 623 -1 371 -33 601
-143 1025 -34 132 -35 139 -22 131 5 -4 12 -24 16 -46 6 -34 10 -40 26 -35 11
4 19 2 19 -4 0 -6 10 -27 23 -46 23 -37 52 -48 44 -17 -3 9 -8 33 -11 53 -4
25 -13 38 -26 42 -19 5 -20 26 -4 105 7 33 24 27 19 -8 -3 -16 -7 -43 -10 -60
-3 -21 0 -30 9 -30 7 0 21 -9 30 -19 10 -11 31 -24 46 -29 26 -10 28 -8 34 19
6 30 6 30 31 12 15 -11 24 -28 25 -45 0 -17 5 -28 14 -28 16 0 26 -30 26 -82
0 -21 4 -38 9 -38 5 0 7 9 4 20 -4 14 0 20 10 20 14 0 14 5 5 32 -9 26 -8 33
5 43 10 7 17 16 17 22 0 5 5 14 12 21 9 9 17 7 36 -11 21 -20 24 -20 33 -5 5
10 17 14 28 11 16 -4 20 1 24 29 l4 33 1 -37 c2 -27 7 -38 18 -38 10 0 14 6
10 18 -3 9 -9 36 -15 60 -7 35 -6 42 6 42 12 0 14 7 8 33 -9 42 -12 144 -4
120 4 -10 16 -57 28 -104z m-8668 38 c-8 -8 -11 -5 -11 9 0 27 14 41 18 19 2
-9 -1 -22 -7 -28z m8343 22 c-6 -11 -24 -2 -24 11 0 5 7 7 15 4 8 -4 12 -10 9
-15z m-8296 -8 c-7 -11 -15 -18 -20 -15 -11 7 3 34 18 34 12 0 12 -4 2 -19z
m-84 -19 c-41 -33 -72 -183 -41 -195 8 -4 7 -6 -4 -6 -32 -2 -37 18 -23 87 23
109 33 126 79 131 6 0 0 -7 -11 -17z m8351 8 c4 -6 -1 -7 -11 -3 -14 5 -16 3
-11 -10 4 -9 10 -24 13 -32 3 -8 1 -15 -5 -15 -14 0 -34 48 -25 61 7 12 31 12
39 -1z m150 -18 c-20 -14 -45 -62 -45 -86 0 -25 -31 -52 -44 -39 -11 11 -6 23
9 23 10 0 15 10 15 30 0 17 4 30 8 30 5 0 14 11 20 25 6 14 20 25 29 25 10 0
14 -3 8 -8z m-8285 -42 c-11 -22 -25 -40 -30 -40 -14 0 -13 4 11 44 29 49 44
46 19 -4z m8336 25 c-23 -18 -33 -19 -41 -5 -3 5 0 7 8 4 8 -3 18 -1 22 5 3 6
12 11 18 11 7 0 3 -7 -7 -15z m86 -7 c-3 -14 -2 -19 6 -14 7 4 12 3 12 -3 0
-5 -4 -12 -9 -16 -12 -7 -25 31 -16 45 10 16 13 11 7 -12z m-8242 -63 c-17
-43 -27 -55 -44 -55 -13 0 -16 3 -9 8 6 4 23 34 38 67 33 73 46 56 15 -20z
m-110 57 c0 -12 -28 -48 -33 -42 -8 8 11 50 23 50 5 0 10 -4 10 -8z m-277 -86
c6 -16 -2 -28 -14 -20 -12 7 -11 34 0 34 5 0 11 -6 14 -14z m63 -21 c38 -40
50 -88 40 -160 -11 -72 -24 -52 -23 34 1 77 -1 81 -31 112 -30 31 -40 49 -26
49 3 0 21 -16 40 -35z m153 6 c12 -8 13 -14 3 -36 -7 -14 -12 -37 -12 -50 0
-14 -5 -25 -10 -25 -7 0 -10 23 -8 60 3 63 4 65 27 51z m-34 -11 c3 -5 2 -10
-4 -10 -5 0 -13 5 -16 10 -3 6 -2 10 4 10 5 0 13 -4 16 -10z m100 -14 c17 -12
18 -18 6 -56 -9 -32 -10 -45 0 -56 16 -19 4 -30 -16 -14 -18 15 -20 53 -3 80
10 15 9 23 -6 39 -22 24 -9 28 19 7z m-374 -73 c-12 -20 -14 -14 -5 12 4 9 9
14 11 11 3 -2 0 -13 -6 -23z m239 -3 c0 -5 -4 -10 -10 -10 -5 0 -10 5 -10 10
0 6 5 10 10 10 6 0 10 -4 10 -10z m-336 -1396 c3 -9 6 -26 6 -39 0 -64 46
-185 70 -185 6 0 10 -4 10 -9 0 -5 -8 -7 -18 -4 -22 5 -62 82 -62 118 0 13 -4
26 -9 29 -4 3 -6 22 -4 42 2 20 -2 42 -8 50 -7 9 -7 14 -1 14 5 0 13 -7 16
-16z m212 -106 c0 -13 5 -32 9 -43 8 -19 8 -19 -8 -3 -17 17 -23 49 -10 61 3
4 7 7 7 7 1 0 1 -10 2 -22z m-36 -73 c0 -43 -3 -55 -15 -55 -13 0 -14 4 -4 21
7 14 7 25 1 31 -8 8 5 58 16 58 1 0 2 -25 2 -55z m250 34 c0 -11 5 -29 10 -40
6 -10 7 -19 2 -19 -10 0 -32 44 -32 65 0 8 5 15 10 15 6 0 10 -9 10 -21z m47
-11 c-3 -7 -5 -2 -5 12 0 14 2 19 5 13 2 -7 2 -19 0 -25z m-620 -20 c-3 -8 -6
-5 -6 6 -1 11 2 17 5 13 3 -3 4 -12 1 -19z m150 -10 c-3 -8 -6 -5 -6 6 -1 11
2 17 5 13 3 -3 4 -12 1 -19z m482 -58 c0 -8 3 -33 6 -55 5 -52 -10 -25 -19 32
-3 23 -9 50 -12 60 -6 16 -5 15 8 -2 8 -11 16 -27 17 -35z m-221 -55 l0 -20
-5 20 c-3 11 -9 22 -13 25 -4 3 -5 21 -2 40 l6 35 7 -40 c4 -22 8 -49 7 -60z
m-51 53 c-3 -8 -6 -5 -6 6 -1 11 2 17 5 13 3 -3 4 -12 1 -19z m121 -13 c-3 -3
-9 2 -12 12 -6 14 -5 15 5 6 7 -7 10 -15 7 -18z m30 0 c-3 -3 -9 2 -12 12 -6
14 -5 15 5 6 7 -7 10 -15 7 -18z m-331 -17 c-3 -7 -5 -2 -5 12 0 14 2 19 5 13
2 -7 2 -19 0 -25z m106 -8 c3 -11 2 -18 -3 -15 -4 3 -10 14 -13 25 -3 11 -2
18 3 15 4 -3 10 -14 13 -25z m90 -14 c4 -10 0 -12 -14 -9 -10 3 -16 9 -13 14
8 13 21 11 27 -5z m-162 -66 c6 0 7 -4 4 -10 -12 -19 -25 -10 -24 18 1 16 3
20 6 10 2 -10 9 -18 14 -18z m126 -12 c-3 -7 -5 -2 -5 12 0 14 2 19 5 13 2 -7
2 -19 0 -25z m120 0 c-3 -7 -5 -2 -5 12 0 14 2 19 5 13 2 -7 2 -19 0 -25z
m130 -115 c-3 -10 -5 -4 -5 12 0 17 2 24 5 18 2 -7 2 -21 0 -30z m-147 -43 c0
-5 -4 -10 -10 -10 -5 0 -10 5 -10 10 0 6 5 10 10 10 6 0 10 -4 10 -10z m8610
-19 c0 -6 -4 -13 -10 -16 -5 -3 -10 1 -10 9 0 9 5 16 10 16 6 0 10 -4 10 -9z
m-12 -58 c-2 -9 -8 -18 -15 -20 -7 -3 -9 3 -6 16 6 25 26 28 21 4z m-481 -85
c-3 -8 -6 -5 -6 6 -1 11 2 17 5 13 3 -3 4 -12 1 -19z m263 5 c0 -14 -19 -38
-25 -32 -8 8 5 39 16 39 5 0 9 -3 9 -7z m247 -15 c-3 -8 -6 -5 -6 6 -1 11 2
17 5 13 3 -3 4 -12 1 -19z m-553 -13 c3 -8 1 -15 -4 -15 -6 0 -10 7 -10 15 0
8 2 15 4 15 2 0 6 -7 10 -15z m203 -27 c-3 -8 -6 -5 -6 6 -1 11 2 17 5 13 3
-3 4 -12 1 -19z m-60 -20 c-3 -7 -5 -2 -5 12 0 14 2 19 5 13 2 -7 2 -19 0 -25z
m293 22 c0 -5 -5 -10 -11 -10 -5 0 -7 5 -4 10 3 6 8 10 11 10 2 0 4 -4 4 -10z
m-403 -92 c-3 -8 -6 -5 -6 6 -1 11 2 17 5 13 3 -3 4 -12 1 -19z m3 -28 c0 -5
-4 -10 -10 -10 -5 0 -10 5 -10 10 0 6 5 10 10 10 6 0 10 -4 10 -10z m410 -29
c0 -11 5 -23 10 -26 6 -3 9 -18 9 -33 l-2 -27 -4 25 c-3 14 -8 30 -12 35 -14
19 -20 45 -11 45 6 0 10 -9 10 -19z m-320 -11 c0 -5 -2 -10 -4 -10 -3 0 -8 5
-11 10 -3 6 -1 10 4 10 6 0 11 -4 11 -10z m-90 -8 c0 -5 10 -14 23 -20 12 -6
17 -11 11 -11 -7 -1 -22 8 -35 19 -13 10 -18 19 -11 20 6 0 12 -4 12 -8z m-89
-19 c13 -16 12 -17 -3 -4 -10 7 -18 15 -18 17 0 8 8 3 21 -13z m206 1 c-3 -3
-12 -4 -19 -1 -8 3 -5 6 6 6 11 1 17 -2 13 -5z m155 -14 c18 -11 28 -20 23
-20 -6 0 -19 6 -30 14 -11 7 -29 16 -40 19 -16 4 -16 5 -3 6 10 0 32 -8 50
-19z m-7761 -437 c13 -16 12 -17 -3 -4 -10 7 -18 15 -18 17 0 8 8 3 21 -13z
m7567 -8 c-3 -3 -9 2 -12 12 -6 14 -5 15 5 6 7 -7 10 -15 7 -18z m-585 -135
c-15 -28 -36 -60 -47 -73 l-18 -22 14 25 c8 14 27 46 42 73 15 26 30 47 33 47
2 0 -8 -23 -24 -50z m-7296 -712 c-3 -8 -6 -5 -6 6 -1 11 2 17 5 13 3 -3 4
-12 1 -19z m7636 -17 c-3 -11 -20 -37 -37 -58 -18 -21 -60 -75 -93 -120 -116
-157 -343 -421 -343 -399 0 4 28 37 63 75 71 77 126 142 159 188 13 17 64 84
113 148 50 64 99 131 110 150 22 38 36 46 28 16z m-6522 -148 c13 -16 12 -17
-3 -4 -10 7 -18 15 -18 17 0 8 8 3 21 -13z m99 -98 c13 -14 21 -25 18 -25 -2
0 -15 11 -28 25 -13 14 -21 25 -18 25 2 0 15 -11 28 -25z m191 -172 c13 -16
12 -17 -3 -4 -10 7 -18 15 -18 17 0 8 8 3 21 -13z m43 -29 c3 -8 2 -12 -4 -9
-6 3 -10 10 -10 16 0 14 7 11 14 -7z m107 -81 c13 -16 12 -17 -3 -4 -17 13
-22 21 -14 21 2 0 10 -8 17 -17z m40 -30 c13 -16 12 -17 -3 -4 -10 7 -18 15
-18 17 0 8 8 3 21 -13z m40 -30 c13 -16 12 -17 -3 -4 -10 7 -18 15 -18 17 0 8
8 3 21 -13z m5509 -14 c-7 -11 -14 -18 -17 -15 -3 3 0 12 7 21 18 21 23 19 10
-6z m-85 -80 c-33 -33 -78 -75 -100 -92 -22 -17 3 10 55 61 108 104 133 122
45 31z m-5334 34 c13 -16 12 -17 -3 -4 -17 13 -22 21 -14 21 2 0 10 -8 17 -17z
m69 -50 c0 -7 -39 17 -46 28 -3 6 5 3 20 -6 14 -10 26 -19 26 -22z m221 -130
c13 -16 12 -17 -3 -4 -17 13 -22 21 -14 21 2 0 10 -8 17 -17z m4878 1 c-18
-22 -270 -226 -274 -222 -3 3 276 236 284 237 2 1 -3 -6 -10 -15z m-4684 -102
c-3 -3 -11 0 -18 7 -9 10 -8 11 6 5 10 -3 15 -9 12 -12z m95 -37 c14 -8 21
-14 15 -14 -5 0 -21 6 -35 14 -14 8 -20 14 -15 14 6 0 21 -6 35 -14z m240 -95
c19 -11 31 -19 25 -19 -5 0 -26 8 -45 19 -19 11 -30 19 -25 19 6 0 26 -8 45
-19z m4050 -4 c0 -3 -15 -15 -32 -27 l-33 -22 25 26 c23 24 40 33 40 23z
m-3983 -22 c-3 -3 -12 -4 -19 -1 -8 3 -5 6 6 6 11 1 17 -2 13 -5z m3913 -28
c0 -3 -15 -14 -32 -26 l-33 -22 30 26 c31 27 35 29 35 22z m-3575 -74 c-3 -3
-11 0 -18 7 -9 10 -8 11 6 5 10 -3 15 -9 12 -12z m70 -12 c13 -5 14 -9 5 -9
-8 0 -24 4 -35 9 -13 5 -14 9 -5 9 8 0 24 -4 35 -9z m-128 -6 c-3 -3 -12 -4
-19 -1 -8 3 -5 6 6 6 11 1 17 -2 13 -5z m40 -10 c-3 -3 -12 -4 -19 -1 -8 3 -5
6 6 6 11 1 17 -2 13 -5z m140 0 c-3 -3 -12 -4 -19 -1 -8 3 -5 6 6 6 11 1 17
-2 13 -5z m-100 -10 c-3 -3 -12 -4 -19 -1 -8 3 -5 6 6 6 11 1 17 -2 13 -5z
m60 -10 c-3 -3 -12 -4 -19 -1 -8 3 -5 6 6 6 11 1 17 -2 13 -5z m1696 -1 c-7
-2 -19 -2 -25 0 -7 3 -2 5 12 5 14 0 19 -2 13 -5z m-1656 -9 c-3 -3 -12 -4
-19 -1 -8 3 -5 6 6 6 11 1 17 -2 13 -5z m40 -10 c-3 -3 -12 -4 -19 -1 -8 3 -5
6 6 6 11 1 17 -2 13 -5z m1520 0 c-3 -3 -12 -4 -19 -1 -8 3 -5 6 6 6 11 1 17
-2 13 -5z m-1209 -11 c-10 -2 -26 -2 -35 0 -10 3 -2 5 17 5 19 0 27 -2 18 -5z
m1117 -3 c3 -5 -1 -10 -10 -10 -9 0 -13 5 -10 10 3 6 8 10 10 10 2 0 7 -4 10
-10z m-1062 -7 c-7 -2 -19 -2 -25 0 -7 3 -2 5 12 5 14 0 19 -2 13 -5z m-118
-13 c42 -11 1 -11 -50 -1 -34 7 -35 9 -10 9 17 0 44 -4 60 -8z m1078 3 c-7 -2
-19 -2 -25 0 -7 3 -2 5 12 5 14 0 19 -2 13 -5z m-70 -10 c-13 -2 -33 -2 -45 0
-13 2 -3 4 22 4 25 0 35 -2 23 -4z m-774 -19 c8 -7 -104 -3 -144 6 -27 5 -11
6 50 3 50 -3 92 -7 94 -9z m684 9 c-13 -2 -33 -2 -45 0 -13 2 -3 4 22 4 25 0
35 -2 23 -4z m-125 -10 c-21 -2 -57 -2 -80 0 -24 2 -7 4 37 4 44 0 63 -2 43
-4z m-430 -10 c-21 -2 -55 -2 -75 0 -21 2 -4 4 37 4 41 0 58 -2 38 -4z m185 0
c-7 -2 -19 -2 -25 0 -7 3 -2 5 12 5 14 0 19 -2 13 -5z m110 0 c-7 -2 -21 -2
-30 0 -10 3 -4 5 12 5 17 0 24 -2 18 -5z m-190 -10 c-7 -2 -21 -2 -30 0 -10 3
-4 5 12 5 17 0 24 -2 18 -5z m2227 -68 c0 -2 -10 -9 -22 -15 -22 -11 -22 -10
-4 4 21 17 26 19 26 11z m-70 -45 c0 -5 -5 -10 -11 -10 -5 0 -7 5 -4 10 3 6 8
10 11 10 2 0 4 -4 4 -10z m-90 -35 c-7 -8 -18 -15 -24 -15 -6 0 -2 7 8 15 25
19 32 19 16 0z m-136 -60 c-9 -14 -20 -25 -26 -25 -11 0 23 49 35 50 4 0 0
-11 -9 -25z m-3660 -111 c3 -8 2 -12 -4 -9 -6 3 -10 10 -10 16 0 14 7 11 14
-7z m3179 -195 c-9 -9 -12 -7 -10 9 1 14 5 18 11 12 7 -7 6 -14 -1 -21z m-38
-8 c-3 -6 -14 -11 -23 -11 -13 0 -13 2 4 14 21 15 30 14 19 -3z m-2456 -45
c-3 -3 -11 5 -18 17 -13 21 -12 21 5 5 10 -10 16 -20 13 -22z m417 -83 c-10
-10 -19 5 -10 18 6 11 8 11 12 0 2 -7 1 -15 -2 -18z"/>
<path d="M4529 8576 c-3 -3 -43 -8 -90 -11 -196 -13 -615 -90 -704 -130 -16
-7 -46 -17 -65 -20 -19 -4 -42 -13 -50 -20 -8 -7 -28 -15 -45 -18 -87 -16
-133 -31 -270 -87 -188 -77 -314 -139 -329 -162 -6 -10 -21 -18 -33 -18 -13 0
-23 -4 -23 -10 0 -5 -6 -10 -14 -10 -16 0 -185 -97 -254 -145 -317 -221 -480
-361 -683 -585 -142 -157 -208 -235 -254 -300 -21 -30 -43 -59 -50 -65 -44
-40 -234 -357 -324 -540 -186 -382 -272 -656 -345 -1105 -56 -345 -60 -769
-12 -1135 25 -195 43 -292 55 -310 4 -5 8 -26 9 -45 7 -106 152 -546 215 -649
12 -19 22 -42 22 -50 4 -36 17 -81 25 -81 10 0 50 -67 50 -84 0 -7 9 -25 20
-39 11 -14 20 -31 20 -37 0 -7 17 -40 37 -73 158 -265 304 -467 453 -629 50
-53 90 -99 90 -101 0 -7 170 -171 181 -175 5 -2 44 -38 88 -80 105 -103 159
-148 288 -238 144 -101 332 -216 475 -293 147 -77 428 -196 528 -222 41 -11
89 -26 105 -33 89 -41 511 -127 740 -152 150 -16 675 -26 675 -12 0 4 20 8 45
8 51 0 287 33 425 59 52 10 100 16 107 14 7 -3 13 -1 13 5 0 5 33 17 73 27
235 55 627 208 870 340 152 82 403 244 542 350 207 158 439 385 611 599 85
107 194 254 194 263 0 3 15 26 33 52 55 76 154 244 217 369 70 140 140 300
140 320 0 9 7 23 16 33 9 10 17 31 19 47 1 16 6 35 11 43 11 18 74 210 74 227
0 7 -4 10 -10 7 -12 -8 -12 23 1 50 8 17 8 15 4 -7 -3 -16 -1 -28 3 -28 5 0
21 46 35 103 37 146 40 164 42 242 1 39 8 111 15 160 8 50 13 125 12 167 -1
43 1 78 5 78 5 0 7 34 5 76 -3 55 -1 75 7 70 7 -5 11 2 11 18 0 14 -4 26 -10
26 -6 0 -6 9 0 24 5 14 5 78 -1 162 -6 77 -8 168 -4 203 7 73 -13 254 -26 245
-6 -3 -7 13 -3 38 4 29 2 39 -4 29 -7 -9 -8 0 -5 30 4 31 -1 57 -13 84 -27 60
-27 62 -10 40 15 -19 15 -19 16 11 0 16 -4 34 -9 40 -5 5 -12 20 -16 34 -5 20
-4 22 5 10 10 -12 11 -10 6 10 -3 14 -6 32 -7 40 0 8 -5 4 -9 -10 l-8 -25 -1
27 c-1 14 -4 35 -7 45 -5 15 -4 16 6 3 9 -13 10 -12 6 5 -3 11 -15 58 -26 105
-33 129 -77 261 -135 405 -60 147 -161 361 -174 369 -5 3 -12 17 -15 31 -23
91 -415 655 -456 655 -5 0 -12 9 -15 21 -4 11 -32 46 -63 78 -32 32 -80 82
-108 112 -253 268 -655 556 -1034 741 -122 60 -258 118 -274 118 -6 0 -33 11
-61 24 -27 13 -84 34 -125 46 -41 12 -88 26 -105 32 -54 20 -368 98 -455 113
-188 32 -356 47 -625 52 -154 3 -283 3 -286 -1z m-1344 -404 c-3 -3 -11 0 -18
7 -9 10 -8 11 6 5 10 -3 15 -9 12 -12z m1690 -48 c-65 -7 -313 -9 -297 -2 9 4
87 6 172 6 85 -1 142 -3 125 -4z m-1790 -14 c13 -6 15 -9 5 -9 -8 0 -22 4 -30
9 -18 12 -2 12 25 0z m1908 3 c-13 -2 -35 -2 -50 0 -16 2 -5 4 22 4 28 0 40
-2 28 -4z m-590 -10 c-7 -2 -19 -2 -25 0 -7 3 -2 5 12 5 14 0 19 -2 13 -5z
m90 0 c-13 -2 -33 -2 -45 0 -13 2 -3 4 22 4 25 0 35 -2 23 -4z m625 0 c-10 -2
-28 -2 -40 0 -13 2 -5 4 17 4 22 1 32 -1 23 -4z m-773 -13 c-11 -5 -36 -8 -55
-8 l-35 1 40 7 c57 10 74 10 50 0z m858 3 c-7 -2 -21 -2 -30 0 -10 3 -4 5 12
5 17 0 24 -2 18 -5z m80 -10 c-7 -2 -21 -2 -30 0 -10 3 -4 5 12 5 17 0 24 -2
18 -5z m1007 -3 c-8 -5 -19 -10 -25 -10 -5 0 -3 5 5 10 8 5 20 10 25 10 6 0 3
-5 -5 -10z m-2047 -7 c-7 -2 -21 -2 -30 0 -10 3 -4 5 12 5 17 0 24 -2 18 -5z
m-73 -7 c0 -3 -4 -8 -10 -11 -5 -3 -10 -1 -10 4 0 6 5 11 10 11 6 0 10 -2 10
-4z m-57 -23 c-7 -2 -19 -2 -25 0 -7 3 -2 5 12 5 14 0 19 -2 13 -5z m-73 -13
c-40 -13 -101 -28 -165 -41 -33 -7 -64 -16 -70 -20 -5 -4 -35 -14 -65 -22 -30
-8 -64 -18 -74 -23 -12 -5 -17 -4 -13 3 4 6 28 16 54 23 27 7 62 19 78 26 17
7 64 20 105 29 41 9 89 20 105 25 41 11 80 12 45 0z m1763 -67 c-7 -2 -19 -2
-25 0 -7 3 -2 5 12 5 14 0 19 -2 13 -5z m-2203 -59 c-19 -9 -55 -22 -80 -31
-39 -13 -87 -34 -140 -62 -87 -46 -120 -61 -133 -61 -9 0 -22 -6 -29 -13 -22
-22 -85 -57 -101 -57 -8 0 -30 -12 -47 -26 -17 -15 -53 -38 -80 -53 -27 -14
-83 -50 -125 -79 -41 -29 -75 -49 -75 -44 0 10 93 74 191 132 32 19 67 42 76
50 10 9 38 23 63 33 25 9 58 28 74 42 16 14 36 25 44 25 8 0 35 11 61 24 114
60 169 85 211 97 25 7 54 19 65 26 11 7 29 13 40 13 14 -1 10 -5 -15 -16z
m3303 -91 c-7 -2 -21 -2 -30 0 -10 3 -4 5 12 5 17 0 24 -2 18 -5z m-1650 -210
c-7 -2 -19 -2 -25 0 -7 3 -2 5 12 5 14 0 19 -2 13 -5z m282 -13 c3 -6 -1 -7
-9 -4 -18 7 -21 14 -7 14 6 0 13 -4 16 -10z m76 -17 c13 -16 12 -17 -3 -4 -10
7 -18 15 -18 17 0 8 8 3 21 -13z m-184 -19 c-3 -3 -12 -4 -19 -1 -8 3 -5 6 6
6 11 1 17 -2 13 -5z m478 -92 c-3 -3 -11 0 -18 7 -9 10 -8 11 6 5 10 -3 15 -9
12 -12z m251 -158 c18 -14 18 -14 -6 -3 -31 14 -36 19 -24 19 6 0 19 -7 30
-16z m85 -11 c13 -16 12 -17 -3 -4 -10 7 -18 15 -18 17 0 8 8 3 21 -13z
m-2981 -27 c-25 -23 -192 -137 -196 -133 -4 4 30 30 130 99 70 48 93 60 66 34z
m90 9 c0 -7 -81 -57 -86 -52 -2 2 13 15 34 29 37 26 52 32 52 23z m1391 -187
c33 -67 62 -124 65 -127 3 -4 3 51 -1 122 -8 125 -7 127 14 127 21 0 21 -3 21
-151 l0 -150 -27 3 c-25 3 -35 17 -90 128 l-63 125 3 -130 c2 -110 0 -130 -13
-130 -13 0 -15 25 -18 153 l-3 152 26 0 c23 0 32 -14 86 -122z m345 96 c27
-17 38 -63 16 -72 -9 -3 -18 0 -20 6 -8 25 -38 52 -61 54 -38 5 -58 -35 -66
-129 -6 -74 -4 -84 14 -102 29 -29 77 -28 85 2 12 45 7 67 -19 77 -32 12 -33
40 -2 40 60 -1 67 -8 67 -75 0 -82 -12 -95 -89 -95 -97 0 -115 38 -93 198 11
77 29 108 66 115 30 5 78 -3 102 -19z m-552 -6 c11 -51 26 -181 26 -218 0 -52
-34 -80 -100 -80 -73 0 -81 14 -104 180 -15 107 -14 120 8 120 13 0 21 -38 42
-193 8 -60 27 -81 68 -73 41 9 48 22 41 86 -18 177 -19 200 -2 200 9 0 19 -10
21 -22z m2814 5 c-16 -2 -40 -2 -55 0 -16 2 -3 4 27 4 30 0 43 -2 28 -4z
m-4183 -23 c-3 -5 -42 -35 -86 -66 -123 -86 -262 -206 -382 -329 -123 -125
-325 -387 -413 -535 -32 -55 -60 -97 -62 -95 -6 6 76 142 151 250 204 294 438
533 712 727 85 61 90 64 80 48z m3240 -10 c3 -6 -1 -7 -9 -4 -18 7 -21 14 -7
14 6 0 13 -4 16 -10z m-2155 -22 c37 -40 15 -76 -24 -39 -25 23 -56 27 -74 9
-32 -32 0 -72 75 -94 105 -31 127 -123 38 -160 -66 -27 -110 -14 -128 39 -11
31 23 34 45 4 23 -32 47 -34 79 -8 20 16 21 21 10 48 -10 25 -23 33 -72 48
-110 34 -135 121 -46 160 46 20 73 18 97 -7z m1200 -19 c0 -7 -16 -66 -36
-131 -19 -66 -34 -121 -32 -123 2 -1 23 -8 47 -16 45 -14 67 -39 35 -39 -37 0
-124 34 -124 49 0 11 49 180 75 259 5 15 35 16 35 1z m-1415 -124 c30 -72 64
-169 65 -182 0 -2 -9 -3 -19 -3 -14 0 -27 19 -50 75 -17 41 -34 88 -37 105
-12 57 -27 32 -20 -32 11 -111 10 -178 -2 -190 -15 -15 -53 20 -129 120 -31
39 -57 72 -59 72 -4 0 3 -19 50 -133 35 -83 38 -107 15 -107 -12 0 -68 117
-99 209 -19 52 -20 65 -9 72 32 20 55 8 102 -54 58 -76 94 -117 103 -117 3 0
3 26 0 58 -20 204 -20 189 11 200 15 5 31 7 35 3 3 -3 23 -46 43 -96z m1673
43 c29 -11 52 -26 52 -34 0 -8 -3 -14 -7 -14 -13 0 -82 26 -89 33 -13 13 -22
7 -32 -20 -5 -16 -13 -36 -17 -45 -5 -14 3 -22 39 -40 25 -12 46 -28 46 -35 0
-17 -9 -16 -55 3 -35 14 -39 14 -55 -3 -24 -24 -33 -68 -17 -81 6 -5 29 -15
50 -21 38 -13 52 -41 20 -41 -23 0 -110 33 -123 46 -7 7 2 45 29 115 53 144
68 172 89 164 9 -4 41 -16 70 -27z m-3258 -11 c0 -2 -10 -12 -22 -23 l-23 -19
19 23 c18 21 26 27 26 19z m3423 -65 c14 -16 16 -35 11 -123 -3 -57 -7 -115
-10 -127 -9 -42 13 -14 56 71 49 95 58 107 76 107 20 0 17 -13 -16 -70 -16
-28 -30 -55 -30 -59 0 -23 -77 -141 -91 -141 -31 0 -39 24 -34 96 10 120 13
204 9 204 -3 0 -14 -21 -24 -46 -40 -93 -91 -173 -106 -167 -8 3 -14 10 -14
15 0 6 25 56 57 111 92 167 87 161 116 129z m-3473 5 c0 -2 -19 -21 -42 -42
l-43 -40 40 43 c36 39 45 47 45 39z m1288 -158 c62 -55 112 -105 112 -110 0
-21 -32 -21 -54 0 -29 27 -38 27 -87 -6 -38 -25 -40 -28 -34 -65 5 -30 3 -39
-10 -44 -22 -9 -24 -6 -35 62 -10 58 -21 108 -42 193 -10 39 -9 45 7 57 10 8
22 14 25 14 4 0 57 -45 118 -101z m-1398 38 c0 -2 -10 -12 -22 -23 l-23 -19
19 23 c18 21 26 27 26 19z m3912 -73 c32 -32 35 -53 11 -83 -24 -28 -51 -14
-34 17 9 18 8 25 -9 42 -27 27 -46 25 -66 -5 -15 -23 -14 -28 10 -81 14 -31
26 -65 26 -76 0 -32 -49 -88 -78 -88 -28 0 -84 39 -108 75 -15 23 -14 26 6 55
27 37 40 31 40 -20 0 -49 35 -79 69 -60 27 14 27 54 0 115 -37 84 -4 152 70
141 19 -3 47 -18 63 -32z m-3952 23 c0 -2 -12 -14 -27 -28 l-28 -24 24 28 c23
25 31 32 31 24z m-160 -21 c0 -2 -8 -10 -17 -17 -16 -13 -17 -12 -4 4 13 16
21 21 21 13z m1334 -15 c21 -23 7 -36 -31 -26 -28 7 -73 -17 -73 -39 0 -7 9
-21 19 -30 16 -15 30 -17 85 -11 65 7 66 7 96 -25 36 -39 39 -78 8 -107 -52
-47 -103 -56 -133 -23 -14 16 -16 23 -7 32 9 9 19 8 41 -5 27 -16 30 -16 55 4
32 25 33 53 5 73 -17 11 -38 14 -85 9 -60 -6 -64 -5 -93 25 -47 47 -38 101 22
127 44 20 71 18 91 -4z m3335 -184 c35 -37 62 -67 60 -67 -2 0 -51 48 -109
107 -58 59 -85 89 -60 67 25 -22 74 -70 109 -107z m-4249 119 c0 -2 -8 -10
-17 -17 -16 -13 -17 -12 -4 4 13 16 21 21 21 13z m-150 -116 c-12 -16 -24 -30
-26 -30 -3 0 4 14 16 30 12 17 24 30 26 30 3 0 -4 -13 -16 -30z m377 8 c-3 -8
-6 -5 -6 6 -1 11 2 17 5 13 3 -3 4 -12 1 -19z m4134 -145 c13 -16 12 -17 -3
-4 -10 7 -18 15 -18 17 0 8 8 3 21 -13z m34 -43 c10 -11 16 -20 13 -20 -3 0
-13 9 -23 20 -10 11 -16 20 -13 20 3 0 13 -9 23 -20z m-4675 -4 c0 -2 -8 -10
-17 -17 -16 -13 -17 -12 -4 4 13 16 21 21 21 13z m30 -52 c-12 -22 -30 -48
-40 -59 -10 -11 -46 -75 -80 -143 -34 -68 -64 -121 -66 -119 -5 5 112 225 163
310 40 63 56 72 23 11z m4685 -4 l20 -25 -22 19 c-13 11 -23 24 -23 29 0 6 1
8 3 6 1 -2 11 -15 22 -29z m45 -60 c12 -16 19 -30 16 -30 -2 0 -14 14 -26 30
-12 17 -19 30 -16 30 2 0 14 -13 26 -30z m61 -95 l10 -20 -16 20 c-9 11 -21
29 -26 40 l-10 20 16 -20 c9 -11 21 -29 26 -40z m34 -51 c9 -15 12 -23 6 -20
-11 7 -35 46 -28 46 3 0 12 -12 22 -26z m155 -309 c0 -5 -5 -3 -10 5 -5 8 -10
20 -10 25 0 6 5 3 10 -5 5 -8 10 -19 10 -25z m1190 -68 c0 -5 -4 -5 -10 -2 -5
3 -10 14 -10 23 0 15 2 15 10 2 5 -8 10 -19 10 -23z m-743 -79 c-3 -8 -6 -5
-6 6 -1 11 2 17 5 13 3 -3 4 -12 1 -19z m761 -53 c-3 -3 -9 2 -12 12 -6 14 -5
15 5 6 7 -7 10 -15 7 -18z m-6597 -90 c-5 -47 -9 -55 -15 -37 -7 20 -1 75 11
95 10 17 11 1 4 -58z m-14 -97 c-3 -8 -6 -5 -6 6 -1 11 2 17 5 13 3 -3 4 -12
1 -19z m-40 -70 c-3 -8 -6 -5 -6 6 -1 11 2 17 5 13 3 -3 4 -12 1 -19z m-670
-18 c4 -12 3 -13 -5 -1 -5 7 -15 10 -21 7 -6 -4 -11 -2 -11 4 0 17 33 8 37
-10z m663 -23 c0 -13 -4 -27 -9 -32 -21 -23 -33 -169 -38 -455 -5 -311 3 -424
41 -635 23 -132 26 -159 16 -175 -9 -13 -10 -13 -10 0 0 13 -1 13 -10 0 -8
-11 -9 -8 -4 13 4 19 1 34 -10 46 -9 10 -14 25 -10 34 3 9 0 42 -7 74 -9 47
-13 54 -20 38 -7 -15 -8 -8 -6 23 1 23 0 42 -3 42 -3 0 -5 24 -5 52 0 29 -6
130 -12 223 -12 158 -6 383 13 515 3 19 5 50 5 68 1 17 5 32 11 32 5 0 6 9 3
20 -3 11 -2 20 2 20 5 0 10 19 12 42 2 44 16 78 31 78 6 0 10 -10 10 -23z
m6337 -79 c-3 -8 -6 -5 -6 6 -1 11 2 17 5 13 3 -3 4 -12 1 -19z m250 -30 c-3
-7 -5 -2 -5 12 0 14 2 19 5 13 2 -7 2 -19 0 -25z m-50 -15 c-3 -10 -5 -4 -5
12 0 17 2 24 5 18 2 -7 2 -21 0 -30z m-190 -25 c-3 -7 -5 -2 -5 12 0 14 2 19
5 13 2 -7 2 -19 0 -25z m293 22 c0 -5 -2 -10 -4 -10 -3 0 -8 5 -11 10 -3 6 -1
10 4 10 6 0 11 -4 11 -10z m-7059 -27 c-12 -20 -14 -14 -5 12 4 9 9 14 11 11
3 -2 0 -13 -6 -23z m556 5 c-3 -8 -6 -5 -6 6 -1 11 2 17 5 13 3 -3 4 -12 1
-19z m6253 2 c0 -13 -5 -18 -15 -14 -11 5 -12 9 -2 20 16 18 17 17 17 -6z m17
-12 c-3 -7 -5 -2 -5 12 0 14 2 19 5 13 2 -7 2 -19 0 -25z m170 0 c-3 -7 -5 -2
-5 12 0 14 2 19 5 13 2 -7 2 -19 0 -25z m-567 -44 c3 2 6 -17 6 -42 1 -26 6
-87 12 -137 28 -238 -3 -611 -69 -834 -10 -35 -19 -72 -19 -82 0 -21 -16 -34
-24 -20 -4 5 3 54 14 108 28 137 37 185 52 283 13 92 17 431 6 655 -5 116 -4
133 6 102 6 -21 14 -36 16 -33z m587 34 c-3 -7 -5 -2 -5 12 0 14 2 19 5 13 2
-7 2 -19 0 -25z m-7281 -36 c-4 -3 -11 -1 -17 5 -8 8 -8 15 2 26 12 13 14 13
17 -5 2 -11 1 -22 -2 -26z m7131 26 c-3 -8 -6 -5 -6 6 -1 11 2 17 5 13 3 -3 4
-12 1 -19z m246 -3 c-3 -9 -8 -14 -10 -11 -3 3 -2 9 2 15 9 16 15 13 8 -4z
m24 -17 c-3 -7 -5 -2 -5 12 0 14 2 19 5 13 2 -7 2 -19 0 -25z m-7270 -25 c-3
-10 -5 -2 -5 17 0 19 2 27 5 18 2 -10 2 -26 0 -35z m6970 25 c-3 -8 -6 -5 -6
6 -1 11 2 17 5 13 3 -3 4 -12 1 -19z m292 -105 c1 -28 -2 -54 -6 -56 -5 -3 -8
32 -9 77 -1 50 2 71 7 56 4 -14 7 -48 8 -77z m-4301 26 c-8 -4 -30 -11 -49
-14 -19 -3 -51 -8 -71 -11 -25 -4 -38 -2 -38 5 0 6 17 11 39 11 22 0 42 3 44
8 3 4 24 7 47 8 27 1 37 -2 28 -7z m-3061 -21 c-3 -8 -6 -5 -6 6 -1 11 2 17 5
13 3 -3 4 -12 1 -19z m2540 0 c-3 -8 -6 -5 -6 6 -1 11 2 17 5 13 3 -3 4 -12 1
-19z m-2278 -60 c-1 -40 -4 -63 -6 -50 -3 14 -9 20 -16 15 -8 -4 -7 -1 1 9 10
12 11 26 4 52 -6 19 -7 37 -4 40 16 17 22 -1 21 -66z m2856 25 c17 -15 23 -24
14 -21 -9 4 -22 1 -28 -5 -9 -9 -11 -8 -6 5 4 11 -1 21 -14 30 -12 7 -21 19
-21 26 0 14 1 13 55 -35z m1087 34 c-16 -18 -3 -31 50 -51 89 -33 133 -87 148
-181 9 -55 8 -58 -27 -111 -38 -57 -88 -94 -129 -94 -17 0 -24 5 -24 20 0 11
-4 20 -9 20 -14 0 -19 -48 -7 -60 8 -8 7 -10 -5 -5 -11 4 -19 0 -23 -12 -3
-10 -12 -28 -20 -40 -13 -22 -13 -22 -23 12 -11 34 -1 51 11 19 3 -8 10 -13
15 -10 5 4 4 16 -2 30 -7 15 -14 20 -18 14 -11 -17 -67 10 -117 56 -37 34 -45
37 -65 28 l-22 -11 24 0 c13 -1 45 -21 73 -46 28 -25 56 -45 64 -45 8 0 14 -4
14 -10 0 -5 -3 -10 -6 -10 -13 0 -75 43 -104 71 -25 25 -36 30 -75 28 -24 -2
-46 -1 -48 2 -23 31 -36 62 -31 71 4 6 3 8 -3 5 -16 -10 -9 63 10 96 8 16 25
36 38 45 12 8 19 10 15 4 -12 -21 38 4 89 42 26 20 55 36 65 36 10 0 22 5 25
10 9 14 48 12 64 -2 11 -11 12 -7 6 19 -8 41 9 51 25 13 12 -29 30 -41 30 -20
0 6 -4 10 -9 10 -10 0 -22 51 -14 62 2 5 9 8 15 8 7 0 7 -4 0 -13z m-3994 -77
c0 -41 -1 -42 -8 -15 -4 17 -8 46 -8 65 -1 28 1 31 8 15 5 -11 8 -40 8 -65z
m6968 26 c-9 -60 -26 -69 -25 -14 0 33 2 38 9 23 7 -16 9 -14 9 14 1 19 4 32
7 28 4 -3 3 -26 0 -51z m-3944 5 c27 -17 58 -31 70 -31 11 0 31 -9 45 -20 29
-23 17 -28 -13 -5 -10 8 -29 15 -41 15 -12 0 -44 14 -70 30 -27 18 -58 30 -72
28 -13 -2 -26 2 -28 8 -7 21 59 5 109 -25z m-197 19 c-3 -5 -12 -10 -18 -10
-7 0 -6 4 3 10 19 12 23 12 15 0z m4273 -16 c0 -17 -3 -22 -8 -13 -5 6 -6 18
-3 26 8 19 11 16 11 -13z m-4818 6 c0 -5 -4 -10 -10 -10 -5 0 -10 5 -10 10 0
6 5 10 10 10 6 0 10 -4 10 -10z m395 -20 c3 -5 1 -18 -4 -27 -9 -16 -10 -16
-11 3 0 12 -7 24 -15 28 -8 3 -15 10 -15 16 0 12 35 -3 45 -20z m3181 5 c33
-50 19 -55 -188 -71 -84 -6 -88 -5 -88 14 0 17 9 21 68 26 157 15 174 18 163
29 -17 17 -13 27 9 27 11 0 27 -11 36 -25z m-1986 7 c0 -4 -28 -23 -62 -41
-74 -40 -71 -32 4 15 62 38 58 36 58 26z m40 -2 c8 -5 11 -10 5 -10 -5 0 -17
5 -25 10 -8 5 -10 10 -5 10 6 0 17 -5 25 -10z m3104 -5 c-4 -8 -11 -15 -16
-15 -6 0 -5 6 2 15 7 8 14 15 16 15 2 0 1 -7 -2 -15z m43 -47 c-2 -13 -4 -3
-4 22 0 25 2 35 4 23 2 -13 2 -33 0 -45z m-4694 -78 c-5 -94 -3 -120 7 -120 9
0 11 -15 6 -64 -6 -49 -4 -67 7 -78 15 -14 19 -98 5 -98 -27 0 -52 348 -32
449 12 58 14 32 7 -89z m382 113 c-11 -3 -27 -10 -35 -17 -13 -10 -13 -9 -1 7
7 9 23 16 35 16 20 -1 20 -2 1 -6z m-1547 -11 c85 -11 66 -27 -38 -32 -94 -5
-95 -5 -98 -31 -4 -34 13 -41 108 -48 62 -5 75 -9 78 -25 4 -17 -2 -18 -80
-12 -45 3 -95 6 -109 6 -24 0 -25 3 -27 59 -3 92 16 101 166 83z m1061 -36
c-9 -8 -10 -7 -5 7 3 10 7 24 7 30 1 7 3 4 6 -7 3 -10 -1 -23 -8 -30z m556 34
c3 -5 26 -7 53 -3 72 10 101 7 122 -12 13 -12 29 -16 47 -12 16 2 37 1 48 -3
11 -5 16 -9 10 -10 -5 -1 1 -5 15 -9 26 -7 76 -71 83 -106 3 -13 5 -9 6 10 1
19 -6 37 -19 48 -11 9 -20 25 -19 34 0 15 2 15 9 -2 4 -12 15 -27 24 -34 23
-19 24 -153 1 -145 -13 6 -20 -6 -16 -28 2 -15 -81 -49 -122 -50 -28 -1 -56
-11 -84 -30 -60 -40 -67 -35 -9 7 36 25 61 35 90 36 23 1 32 4 21 6 -11 3 -25
9 -31 14 -7 6 -16 4 -24 -6 -7 -8 -18 -15 -25 -15 -7 0 -34 -9 -59 -21 -42
-18 -46 -22 -34 -37 9 -12 6 -12 -10 2 -12 11 -25 16 -29 13 -3 -4 -15 0 -25
10 -17 15 -18 15 -18 -5 0 -12 -4 -22 -10 -22 -6 0 -6 9 0 26 14 37 13 49 -5
34 -17 -14 -23 -10 -96 58 -32 29 -36 38 -33 75 4 67 26 113 75 151 47 38 55
41 64 26z m4112 -87 c-2 -21 -4 -6 -4 32 0 39 2 55 4 38 2 -18 2 -50 0 -70z
m-7017 -99 c0 -96 -4 -154 -10 -154 -6 0 -10 56 -10 149 0 82 -3 158 -7 168
-6 16 -5 16 10 4 15 -12 17 -35 17 -167z m6909 9 c-1 -93 -3 -161 -5 -153 -7
35 -9 320 -2 320 4 0 7 -75 7 -167z m88 70 c-2 -21 -4 -6 -4 32 0 39 2 55 4
38 2 -18 2 -50 0 -70z m280 50 c-3 -10 -5 -4 -5 12 0 17 2 24 5 18 2 -7 2 -21
0 -30z m-4544 -7 c-10 -13 -20 -22 -22 -20 -4 4 29 44 36 44 2 0 -4 -11 -14
-24z m-2906 -183 c-2 -38 -3 -7 -3 67 0 74 1 105 3 68 2 -38 2 -98 0 -135z
m2560 40 c-2 -32 -3 -8 -3 52 0 61 1 87 3 58 2 -29 2 -78 0 -110z m1923 137
c0 -11 -2 -20 -4 -20 -2 0 -6 9 -9 20 -3 11 -1 20 4 20 5 0 9 -9 9 -20z m247
-208 c-9 -78 -17 -94 -24 -54 -11 63 -6 265 7 257 6 -3 11 2 12 12 1 10 4 -16
8 -57 4 -41 2 -112 -3 -158z m2410 206 c-3 -8 -6 -5 -6 6 -1 11 2 17 5 13 3
-3 4 -12 1 -19z m-6840 -185 c-2 -38 -3 -7 -3 67 0 74 1 105 3 68 2 -38 2 -98
0 -135z m6818 50 c-4 -68 -9 -122 -12 -119 -3 3 -2 65 2 138 4 73 10 127 13
120 2 -8 1 -70 -3 -139z m-4598 60 c-2 -16 -4 -5 -4 22 0 28 2 40 4 28 2 -13
2 -35 0 -50z m4882 -65 c-1 -111 -3 -125 -10 -83 -8 45 -2 215 7 215 2 0 3
-60 3 -132z m-7432 55 c-2 -16 -4 -5 -4 22 0 28 2 40 4 28 2 -13 2 -35 0 -50z
m2727 -13 c-1 -45 -4 -84 -8 -87 -3 -3 -6 33 -6 80 0 48 3 87 8 87 4 0 6 -36
6 -80z m1793 -37 c-2 -21 -4 -4 -4 37 0 41 2 58 4 38 2 -21 2 -55 0 -75z
m1566 63 c8 -20 -20 -43 -35 -28 -14 14 -3 42 16 42 7 0 16 -6 19 -14z m-3173
-30 c0 -3 -4 -8 -10 -11 -5 -3 -10 -1 -10 4 0 6 5 11 10 11 6 0 10 -2 10 -4z
m-363 -83 c-2 -16 -4 -3 -4 27 0 30 2 43 4 28 2 -16 2 -40 0 -55z m-1037 44
c22 -11 25 -19 25 -67 0 -50 -2 -56 -28 -68 -29 -14 -123 -18 -157 -7 -10 3
-24 22 -30 41 -16 49 2 91 44 103 46 14 117 12 146 -2z m4443 -3 c11 -11 -5
-35 -29 -45 -25 -9 -31 -33 -15 -58 15 -23 80 -5 91 25 13 32 26 30 45 -5 19
-37 54 -50 71 -26 15 20 8 45 -19 64 -19 13 -19 15 -2 27 52 38 102 -64 59
-124 -19 -27 -88 -31 -115 -6 -16 15 -20 15 -41 0 -45 -32 -123 -12 -133 34
-8 37 13 108 34 113 26 7 47 7 54 1z m-2463 -54 c0 -5 -2 -10 -4 -10 -3 0 -8
5 -11 10 -3 6 -1 10 4 10 6 0 11 -4 11 -10z m1020 -5 c0 -8 -7 -15 -16 -15
-14 0 -14 3 -4 15 7 8 14 15 16 15 2 0 4 -7 4 -15z m-4250 -25 c0 -5 -4 -10
-10 -10 -5 0 -10 5 -10 10 0 6 5 10 10 10 6 0 10 -4 10 -10z m2337 -27 c-3
-10 -5 -4 -5 12 0 17 2 24 5 18 2 -7 2 -21 0 -30z m-40 -20 c-3 -10 -5 -4 -5
12 0 17 2 24 5 18 2 -7 2 -21 0 -30z m458 27 c3 -6 -1 -7 -9 -4 -18 7 -21 14
-7 14 6 0 13 -4 16 -10z m-2737 -79 l-1 -46 -6 45 -5 45 -6 -45 -7 -45 -1 59
c-2 51 0 57 13 46 10 -8 14 -28 13 -59z m59 -53 c-2 -24 -4 -5 -4 42 0 47 2
66 4 43 2 -24 2 -62 0 -85z m2398 112 c3 -5 1 -10 -4 -10 -6 0 -11 5 -11 10 0
6 2 10 4 10 3 0 8 -4 11 -10z m1696 -24 c-35 -36 -118 -70 -145 -60 -23 9 -20
23 4 17 11 -3 28 -2 37 2 10 4 28 8 41 9 12 1 37 16 54 34 18 18 35 32 37 32
3 0 -10 -15 -28 -34z m-3524 2 c-3 -8 -6 -5 -6 6 -1 11 2 17 5 13 3 -3 4 -12
1 -19z m2068 -8 l20 -25 -22 19 c-13 11 -23 24 -23 29 0 6 1 8 3 6 1 -2 11
-15 22 -29z m4106 -243 c-12 -91 -25 -175 -31 -188 -10 -22 -10 -21 -4 6 11
55 44 338 46 394 l2 56 3 -51 c2 -29 -5 -126 -16 -217z m-4344 221 c-3 -8 -6
-5 -6 6 -1 11 2 17 5 13 3 -3 4 -12 1 -19z m3157 -24 c10 -26 7 -34 -14 -34
-13 0 -20 7 -20 18 0 33 23 44 34 16z m-4346 -11 c-3 -14 -18 -20 -73 -26
-145 -16 -192 10 -53 29 123 17 130 17 126 -3z m1199 -5 c-3 -8 -6 -5 -6 6 -1
11 2 17 5 13 3 -3 4 -12 1 -19z m-2680 -45 c-3 -10 -5 -4 -5 12 0 17 2 24 5
18 2 -7 2 -21 0 -30z m2400 15 c-3 -8 -6 -5 -6 6 -1 11 2 17 5 13 3 -3 4 -12
1 -19z m-2155 -50 c4 -55 3 -66 -8 -55 -12 12 -17 107 -6 107 5 0 12 -24 14
-52z m1248 3 c0 -38 -15 -48 -80 -57 -72 -9 -100 -20 -100 -39 0 -19 -14 -19
-30 0 -7 8 -23 15 -36 15 -32 0 -31 26 1 34 14 4 25 13 25 21 0 22 20 29 34
10 11 -15 21 -16 77 -9 56 8 65 12 77 37 16 33 32 27 32 -12z m4358 -8 c-2
-10 -13 -19 -25 -21 -26 -4 -36 -27 -23 -52 14 -26 97 -37 119 -16 13 13 13
20 3 36 -31 50 -4 61 98 39 l52 -11 -7 -52 c-4 -28 -9 -59 -12 -69 -9 -33 -28
-11 -33 39 -4 41 -8 49 -27 52 -18 3 -23 -1 -23 -20 0 -13 -7 -34 -16 -47 -15
-21 -22 -23 -85 -19 -53 3 -72 8 -84 23 -25 33 -29 65 -12 101 14 28 22 34 48
34 24 0 30 -4 27 -17z m-5651 -55 c-3 -7 -5 -2 -5 12 0 14 2 19 5 13 2 -7 2
-19 0 -25z m-190 -35 c-3 -10 -5 -4 -5 12 0 17 2 24 5 18 2 -7 2 -21 0 -30z
m53 17 c0 -5 -4 -10 -10 -10 -5 0 -10 5 -10 10 0 6 5 10 10 10 6 0 10 -4 10
-10z m213 -18 c3 7 6 -2 6 -20 1 -19 5 -31 11 -27 6 3 7 -1 4 -10 -4 -8 -1
-22 6 -31 9 -10 10 -18 3 -25 -7 -7 -13 1 -17 25 -4 22 -13 36 -21 36 -8 0
-15 6 -15 14 0 8 -3 23 -7 33 -6 15 -4 16 9 5 13 -10 17 -10 21 0z m-136 -34
c-3 -8 -6 -5 -6 6 -1 11 2 17 5 13 3 -3 4 -12 1 -19z m-161 -34 c-7 -18 -23
-18 -23 1 0 8 4 12 9 9 4 -3 9 5 9 18 1 18 2 19 6 5 3 -10 2 -25 -1 -33z
m1547 9 c21 -72 -19 -111 -123 -120 -49 -5 -60 -3 -79 16 -28 28 -28 82 -1
106 16 14 23 16 32 7 9 -9 7 -17 -7 -32 -24 -26 -10 -53 28 -58 39 -5 105 16
117 38 13 25 3 50 -21 50 -11 0 -19 7 -19 16 0 11 8 14 32 12 27 -2 34 -9 41
-35z m4365 -88 c-15 -43 -38 -59 -38 -25 0 11 7 35 16 52 22 43 38 23 22 -27z
m-5891 13 c-3 -8 -6 -5 -6 6 -1 11 2 17 5 13 3 -3 4 -12 1 -19z m610 -20 c-3
-8 -6 -5 -6 6 -1 11 2 17 5 13 3 -3 4 -12 1 -19z m10 -40 c-3 -8 -6 -5 -6 6
-1 11 2 17 5 13 3 -3 4 -12 1 -19z m6425 -23 c4 -39 -6 -48 -16 -12 -8 31 -7
47 3 47 5 0 11 -16 13 -35z m73 -39 c0 -30 -3 -49 -7 -43 -10 16 -10 97 0 97
4 0 7 -24 7 -54z m-5557 32 c-3 -7 -38 -24 -79 -38 -70 -24 -74 -27 -77 -58
-4 -44 13 -48 97 -23 74 23 101 26 101 13 0 -10 -42 -29 -133 -61 -73 -26 -77
-26 -77 2 0 13 -9 32 -20 42 -42 38 -18 71 77 111 64 26 117 32 111 12z m4202
-3 c0 -8 -4 -15 -9 -15 -16 0 -41 -31 -41 -51 0 -22 61 -51 100 -47 22 3 25 8
25 45 0 22 3 44 6 47 9 9 130 -35 135 -49 7 -17 -20 -118 -31 -122 -26 -8 -34
13 -23 51 11 34 10 40 -7 52 -28 20 -40 17 -41 -11 -4 -56 -43 -68 -127 -39
-26 9 -52 26 -59 37 -16 31 -11 87 9 103 25 18 63 18 63 -1z m1207 -27 c-3 -7
-5 -2 -5 12 0 14 2 19 5 13 2 -7 2 -19 0 -25z m233 -54 c7 -24 10 -47 8 -50
-3 -3 -9 11 -12 31 -4 20 -14 39 -22 42 -7 3 -14 11 -14 19 0 30 29 0 40 -42z
m-136 19 c-7 -31 -12 -38 -18 -32 -7 7 6 59 15 59 5 0 6 -12 3 -27z m-107 -45
c-2 -13 -4 -3 -4 22 0 25 2 35 4 23 2 -13 2 -33 0 -45z m356 -20 c10 -73 8
-195 -2 -178 -5 9 -9 52 -8 95 1 44 -2 90 -6 103 -5 13 -4 22 1 22 5 0 12 -19
15 -42z m-5683 -66 c0 -11 9 -27 20 -37 11 -10 20 -31 20 -47 0 -25 -8 -32
-84 -70 -51 -25 -90 -39 -100 -35 -27 11 -10 25 70 62 78 36 95 63 54 85 -16
9 -35 4 -92 -20 -84 -35 -91 -36 -86 -14 2 10 38 32 88 55 99 43 110 45 110
21z m4152 -105 c88 -46 100 -67 71 -125 -13 -27 -25 -38 -45 -40 -22 -3 -28 1
-28 16 0 13 9 22 24 26 34 8 42 37 16 58 -31 25 -47 22 -53 -10 -8 -42 -45
-55 -99 -36 -85 30 -113 91 -66 141 19 20 28 23 63 18 22 -4 75 -25 117 -48z
m1159 10 c-10 -9 -11 -8 -5 6 3 10 9 15 12 12 3 -3 0 -11 -7 -18z m386 -59
c-3 -8 -6 -5 -6 6 -1 11 2 17 5 13 3 -3 4 -12 1 -19z m-240 -4 c-3 -3 -12 -4
-19 -1 -8 3 -5 6 6 6 11 1 17 -2 13 -5z m-5487 -96 c11 -18 21 -37 23 -43 2
-5 31 4 65 22 59 30 88 29 62 -2 -7 -8 -62 -42 -123 -75 -124 -68 -128 -68
-164 -4 -42 73 -22 104 22 34 28 -45 39 -48 75 -20 25 19 25 19 8 63 -9 25
-14 48 -11 51 13 12 24 5 43 -26z m119 -172 c25 -39 26 -46 7 -46 -13 0 -56
57 -56 74 0 19 31 1 49 -28z m3712 -36 c4 -14 15 -51 24 -83 9 -33 28 -71 45
-90 l30 -32 20 23 c16 19 18 28 9 44 -15 28 5 49 25 28 28 -29 24 -74 -10
-105 -35 -32 -65 -32 -94 3 -28 31 -69 127 -70 160 0 32 -21 27 -50 -13 -24
-33 -40 -40 -47 -18 -2 6 15 34 37 62 45 56 68 62 81 21z m-3546 11 c6 -10
-52 -60 -123 -106 -30 -20 -46 -25 -53 -18 -8 8 5 23 43 50 121 90 122 90 133
74z m4140 -61 c3 -5 1 -10 -4 -10 -6 0 -11 5 -11 10 0 6 2 10 4 10 3 0 8 -4
11 -10z m-641 -141 c62 -57 96 -103 96 -129 0 -6 -11 -22 -25 -35 -40 -41 -81
-34 -151 26 -32 29 -66 62 -76 74 -40 51 -6 125 57 125 25 0 46 -13 99 -61z
m-3222 -96 c31 -29 36 -64 13 -83 -16 -13 -18 -11 -29 43 -9 38 -32 44 -62 16
-58 -54 -62 -101 -8 -103 15 -1 29 -6 31 -13 5 -14 -84 -113 -101 -113 -20 0
-89 77 -81 90 5 8 17 2 39 -19 l31 -30 24 25 23 24 -26 25 c-33 30 -33 52 -1
96 55 74 100 87 147 42z m3098 -66 c0 -14 -52 -57 -70 -57 -18 0 -11 20 18 45
30 27 52 32 52 12z m-180 -16 c15 -30 13 -32 -24 -26 -28 6 -36 3 -45 -14 -14
-25 -5 -44 38 -85 35 -34 59 -29 67 14 4 16 12 30 19 30 15 0 95 -89 95 -106
0 -16 -77 -84 -95 -84 -22 0 -19 10 16 47 32 32 32 32 14 59 l-18 28 -17 -22
c-10 -11 -29 -24 -44 -28 -22 -5 -33 1 -71 39 -57 57 -62 101 -14 141 36 31
64 33 79 7z m1071 -148 c-33 -50 -67 -96 -76 -103 -8 -7 -15 -16 -15 -21 0 -5
-9 -18 -20 -29 -11 -11 -20 -29 -20 -41 0 -26 -54 -105 -81 -120 -17 -8 -20
-17 -15 -42 5 -28 1 -36 -32 -63 -55 -45 -73 -52 -27 -11 22 20 44 36 48 37 4
0 5 15 2 34 -6 27 -3 36 14 48 30 22 81 95 81 118 0 10 20 44 45 74 25 31 45
59 46 63 0 5 20 35 45 68 24 33 47 69 51 80 4 11 8 15 10 9 2 -7 -23 -52 -56
-101z m-3772 51 c41 -34 39 -59 -11 -130 -92 -132 -132 -152 -182 -93 -30 35
-29 48 12 118 38 67 101 131 128 131 12 0 36 -12 53 -26z m3736 -9 c-1 -20 -8
-41 -15 -48 -10 -10 -11 -8 -5 8 4 11 7 27 7 35 0 17 6 40 11 40 1 0 2 -16 2
-35z m-1166 -20 c40 -34 111 -149 111 -180 0 -30 -30 -62 -66 -71 -35 -9 -68
17 -122 94 -55 78 -64 123 -32 157 30 32 70 32 109 0z m-2453 -59 c3 -8 1 -24
-5 -35 -10 -17 -7 -22 17 -35 52 -27 55 -39 19 -73 -52 -48 -139 -113 -151
-113 -16 0 -36 21 -36 36 0 7 17 41 37 75 21 35 37 76 38 93 0 24 4 30 17 28
10 -1 23 6 30 18 15 24 26 26 34 6z m2316 -97 c26 -46 47 -87 48 -91 0 -5 -8
-8 -18 -8 -9 0 -22 -8 -29 -19 -6 -10 -24 -22 -39 -25 -15 -4 -41 -18 -57 -32
-38 -32 -60 -30 -92 8 -35 41 -77 129 -70 146 7 20 20 8 55 -56 46 -81 58 -94
81 -81 26 14 24 38 -11 104 -30 57 -38 95 -20 95 5 0 28 -34 51 -75 45 -82 50
-88 72 -79 29 11 27 46 -9 112 -66 125 -32 126 38 1z m-2063 -70 c-4 -9 -6
-39 -2 -67 5 -49 4 -53 -30 -87 -37 -37 -59 -42 -114 -26 -20 6 -35 6 -38 0
-14 -22 -21 -4 -23 67 -2 71 -1 77 27 105 28 28 33 29 109 27 70 -3 79 -5 71
-19z m1761 2 c14 -27 60 -156 60 -170 0 -6 -8 -11 -19 -11 -10 0 -24 -7 -31
-15 -7 -8 -28 -15 -46 -15 -21 0 -42 -8 -54 -20 -27 -27 -66 -26 -84 3 -31 47
-69 158 -58 169 17 17 27 3 52 -72 25 -75 50 -101 76 -79 20 16 18 40 -11 111
-24 60 -26 88 -6 88 5 0 23 -35 39 -77 32 -84 51 -105 76 -84 21 18 20 40 -4
92 -21 47 -26 99 -10 99 5 0 14 -9 20 -19z m-315 -91 c3 -5 -6 -12 -20 -16
-29 -7 -29 -2 5 -159 14 -67 20 -80 39 -85 33 -7 27 -24 -11 -32 -18 -3 -68
-13 -111 -22 -90 -18 -127 -20 -127 -6 0 6 9 10 20 10 25 0 25 9 -1 143 -20
100 -23 107 -45 107 -48 0 -22 17 49 33 172 39 193 42 202 27z m-882 -39 c7
-7 2 -50 -19 -148 l-30 -138 -41 2 c-57 2 -127 35 -149 69 -23 34 -24 118 -1
160 26 50 88 76 165 71 35 -3 69 -10 75 -16z m209 -127 c-2 -61 -7 -126 -11
-145 -6 -32 -9 -34 -56 -37 -59 -4 -98 5 -89 19 4 7 26 9 55 7 l49 -5 11 40
c13 49 6 67 -26 67 -34 0 -32 16 4 28 23 8 31 19 37 46 9 51 0 66 -38 66 -43
0 -78 10 -78 22 0 5 33 8 73 6 l72 -3 -3 -111z m2285 -22 c-10 -10 -17 -26
-17 -36 0 -10 -26 -45 -58 -79 -32 -34 -68 -75 -80 -91 -12 -16 -22 -24 -22
-18 0 6 34 47 75 92 41 45 75 89 75 98 0 15 27 52 38 52 3 0 -2 -8 -11 -18z
m-817 -202 c0 -5 -2 -10 -4 -10 -3 0 -8 5 -11 10 -3 6 -1 10 4 10 6 0 11 -4
11 -10z m17 -26 c-3 -3 -12 -4 -19 -1 -8 3 -5 6 6 6 11 1 17 -2 13 -5z m-100
-20 c-3 -3 -12 -4 -19 -1 -8 3 -5 6 6 6 11 1 17 -2 13 -5z m-530 -110 c-3 -3
-12 -4 -19 -1 -8 3 -5 6 6 6 11 1 17 -2 13 -5z m363 -4 c-8 -5 -24 -9 -35 -9
-16 1 -16 2 5 9 35 11 48 11 30 0z m-457 -27 c-7 -2 -19 -2 -25 0 -7 3 -2 5
12 5 14 0 19 -2 13 -5z m-1597 -81 c-5 -4 -96 35 -96 42 0 2 22 -5 50 -17 27
-11 48 -23 46 -25z m1297 31 c-7 -2 -19 -2 -25 0 -7 3 -2 5 12 5 14 0 19 -2
13 -5z m-60 -10 c-7 -2 -19 -2 -25 0 -7 3 -2 5 12 5 14 0 19 -2 13 -5z m-966
-30 c53 -15 93 -28 87 -30 -5 -2 -54 10 -109 26 -55 16 -94 30 -87 30 7 1 56
-11 109 -26z m781 20 c-60 -2 -156 -2 -215 0 -60 1 -11 3 107 3 118 0 167 -2
108 -3z m-875 -38 c48 -14 95 -25 105 -25 9 0 24 -5 32 -10 11 -8 7 -9 -15 -5
-59 12 -220 58 -235 67 -18 11 -14 10 113 -27z m-1043 -1 c0 -2 -9 0 -20 6
-11 6 -20 13 -20 16 0 2 9 0 20 -6 11 -6 20 -13 20 -16z m907 20 c-3 -3 -12
-4 -19 -1 -8 3 -5 6 6 6 11 1 17 -2 13 -5z m1640 -10 c-3 -3 -12 -4 -19 -1 -8
3 -5 6 6 6 11 1 17 -2 13 -5z m-82 -14 l20 -9 -20 1 c-11 0 -31 4 -45 8 l-25
8 25 0 c14 0 34 -3 45 -8z m-78 -6 c-3 -3 -12 -4 -19 -1 -8 3 -5 6 6 6 11 1
17 -2 13 -5z m-997 -19 c58 -8 136 -17 173 -21 38 -3 66 -8 64 -11 -7 -6 -230
16 -307 32 -90 18 -55 18 70 0z m953 8 c-7 -2 -19 -2 -25 0 -7 3 -2 5 12 5 14
0 19 -2 13 -5z m-50 -10 c-7 -2 -19 -2 -25 0 -7 3 -2 5 12 5 14 0 19 -2 13 -5z
m-50 -10 c-7 -2 -21 -2 -30 0 -10 3 -4 5 12 5 17 0 24 -2 18 -5z m-1000 -10
c-7 -2 -19 -2 -25 0 -7 3 -2 5 12 5 14 0 19 -2 13 -5z m567 -14 c42 -2 47 -3
20 -6 -45 -6 -160 6 -160 16 0 5 19 5 43 0 23 -4 67 -9 97 -10z m348 14 c-10
-2 -28 -2 -40 0 -13 2 -5 4 17 4 22 1 32 -1 23 -4z m-185 -10 c-13 -2 -35 -2
-50 0 -16 2 -5 4 22 4 28 0 40 -2 28 -4z m-1743 -79 c0 -2 -9 0 -20 6 -11 6
-20 13 -20 16 0 2 9 0 20 -6 11 -6 20 -13 20 -16z m2697 -240 c-3 -3 -12 -4
-19 -1 -8 3 -5 6 6 6 11 1 17 -2 13 -5z m-94 -31 c-7 -2 -19 -2 -25 0 -7 3 -2
5 12 5 14 0 19 -2 13 -5z m-1616 -79 c-3 -3 -12 -4 -19 -1 -8 3 -5 6 6 6 11 1
17 -2 13 -5z m50 -10 c-3 -3 -12 -4 -19 -1 -8 3 -5 6 6 6 11 1 17 -2 13 -5z
m46 -11 c-7 -2 -19 -2 -25 0 -7 3 -2 5 12 5 14 0 19 -2 13 -5z m82 -13 c3 -6
-1 -7 -9 -4 -18 7 -21 14 -7 14 6 0 13 -4 16 -10z m62 -6 c-3 -3 -12 -4 -19
-1 -8 3 -5 6 6 6 11 1 17 -2 13 -5z m770 0 c-3 -3 -12 -4 -19 -1 -8 3 -5 6 6
6 11 1 17 -2 13 -5z m-679 -11 c-10 -2 -28 -2 -40 0 -13 2 -5 4 17 4 22 1 32
-1 23 -4z m599 1 c-3 -3 -12 -4 -19 -1 -8 3 -5 6 6 6 11 1 17 -2 13 -5z m-489
-11 c-10 -2 -28 -2 -40 0 -13 2 -5 4 17 4 22 1 32 -1 23 -4z m65 0 c-7 -2 -19
-2 -25 0 -7 3 -2 5 12 5 14 0 19 -2 13 -5z m270 0 c-18 -2 -48 -2 -65 0 -18 2
-4 4 32 4 36 0 50 -2 33 -4z"/>
<path d="M3570 6853 c0 -27 33 -153 40 -153 16 0 70 35 70 45 0 6 -25 35 -55
65 -30 30 -55 49 -55 43z"/>
<path d="M2428 4693 c-23 -6 -34 -49 -18 -68 14 -17 95 -20 134 -5 28 10 35
47 14 68 -11 11 -94 15 -130 5z"/>
<path d="M6758 3816 c-35 -26 -13 -65 50 -87 25 -8 36 -8 47 1 27 22 17 48
-28 75 -50 29 -47 28 -69 11z"/>
<path d="M6387 3273 c-19 -19 -3 -54 47 -102 65 -61 103 -79 124 -58 23 23 6
52 -64 112 -60 51 -91 65 -107 48z"/>
<path d="M3407 2930 c-46 -55 -82 -123 -74 -143 11 -28 47 -19 82 19 42 46 88
131 81 149 -11 29 -53 17 -89 -25z"/>
<path d="M5993 2923 c-13 -34 90 -183 127 -183 30 0 32 30 4 84 -42 80 -73
116 -101 116 -13 0 -26 -7 -30 -17z"/>
<path d="M3560 2768 c-12 -24 -30 -51 -38 -60 -8 -10 -12 -18 -8 -18 11 0 126
83 126 92 0 8 -33 28 -48 28 -4 0 -19 -19 -32 -42z"/>
<path d="M3730 2712 c-23 -19 -41 -102 -22 -102 6 0 34 21 62 46 39 37 48 50
39 60 -16 19 -53 17 -79 -4z"/>
<path d="M3779 2630 c-44 -41 -51 -51 -39 -60 44 -30 98 4 107 68 3 23 2 42
-4 42 -5 0 -34 -22 -64 -50z"/>
<path d="M5180 2597 c-39 -10 -45 -16 -44 -37 2 -53 34 -204 45 -211 11 -6 83
6 102 18 16 10 -29 244 -47 242 -6 0 -31 -6 -56 -12z"/>
<path d="M4259 2562 c-27 -24 -33 -37 -37 -83 -5 -64 17 -100 75 -124 55 -23
71 -20 78 18 3 17 13 65 23 105 20 93 14 106 -56 110 -44 3 -55 -1 -83 -26z"/>
<path d="M8588 4875 c2 -82 6 -152 8 -154 7 -7 2 160 -6 234 -5 44 -6 13 -2
-80z"/>
<path d="M8583 4510 c0 -25 2 -35 4 -22 2 12 2 32 0 45 -2 12 -4 2 -4 -23z"/>
<path d="M8570 4383 c0 -10 5 -25 10 -33 7 -11 10 -7 10 18 0 17 -4 32 -10 32
-5 0 -10 -8 -10 -17z"/>
<path d="M8572 4270 c0 -14 2 -19 5 -12 2 6 2 18 0 25 -3 6 -5 1 -5 -13z"/>
<path d="M8562 4210 c0 -19 2 -27 5 -17 2 9 2 25 0 35 -3 9 -5 1 -5 -18z"/>
<path d="M8551 4134 c0 -11 3 -14 6 -6 3 7 2 16 -1 19 -3 4 -6 -2 -5 -13z"/>
<path d="M8537 4071 c-4 -17 -3 -21 5 -13 5 5 8 16 6 23 -3 8 -7 3 -11 -10z"/>
<path d="M360 5704 c0 -8 5 -12 10 -9 6 3 10 10 10 16 0 5 -4 9 -10 9 -5 0
-10 -7 -10 -16z"/>
<path d="M307 5693 c-2 -5 -7 -24 -11 -43 -6 -33 -5 -35 24 -36 26 -1 29 2 24
21 -3 13 -1 26 6 30 8 5 8 10 -1 21 -12 15 -35 19 -42 7z"/>
<path d="M306 5584 c-10 -25 -7 -74 4 -74 6 0 10 -7 10 -17 0 -40 13 2 16 52
2 41 0 55 -10 55 -8 0 -17 -7 -20 -16z"/>
<path d="M9162 5935 c-14 -31 -16 -53 -3 -39 9 9 24 64 18 64 -2 0 -9 -11 -15
-25z"/>
<path d="M9131 5804 c0 -11 3 -14 6 -6 3 7 2 16 -1 19 -3 4 -6 -2 -5 -13z"/>
<path d="M9241 4104 c0 -11 3 -14 6 -6 3 7 2 16 -1 19 -3 4 -6 -2 -5 -13z"/>
<path d="M2975 9160 c3 -5 17 -10 31 -10 13 0 24 5 24 10 0 6 -14 10 -31 10
-17 0 -28 -4 -24 -10z"/>
<path d="M2565 8980 c-3 -6 5 -10 19 -10 14 0 28 5 31 10 3 6 -5 10 -19 10
-14 0 -28 -4 -31 -10z"/>
<path d="M2200 8760 c-13 -8 -12 -10 3 -10 9 0 17 5 17 10 0 12 -1 12 -20 0z"/>
</g>
</svg>
